<svg xmlns="http://www.w3.org/2000/svg" viewBox="0 0 1666.72 1875.06"><defs><style>.cls-1{fill:#120f4c;}.cls-2{fill:#120f4d;}.cls-3{fill:#120f4e;}.cls-4{fill:#130f4e;}.cls-5{fill:#130f4f;}.cls-6{fill:#13104f;}.cls-7{fill:#131050;}.cls-8{fill:#131051;}.cls-9{fill:#131052;}.cls-10{fill:#141053;}.cls-11{fill:#141054;}.cls-12{fill:#141154;}.cls-13{fill:#141155;}.cls-14{fill:#141156;}.cls-15{fill:#141157;}.cls-16{fill:#151157;}.cls-17{fill:#151158;}.cls-18{fill:#151159;}.cls-19{fill:#151259;}.cls-20{fill:#15125a;}.cls-21{fill:#15125b;}.cls-22{fill:#16125b;}.cls-23{fill:#16125c;}.cls-24{fill:#16125d;}.cls-25{fill:#16125e;}.cls-26{fill:#16135e;}.cls-27{fill:#16135f;}.cls-28{fill:#171360;}.cls-29{fill:#171361;}.cls-30{fill:#171362;}.cls-31{fill:#171363;}.cls-32{fill:#171463;}.cls-33{fill:#171464;}.cls-34{fill:#181464;}.cls-35{fill:#181465;}.cls-36{fill:#181466;}</style></defs><g id="Capa_7" data-name="Capa 7"><path class="cls-1" d="M164.94,461.79c16.08,23,24.76,50.13,81.95,131C291.38,655.66,377,765,527,860.19,600.89,907.11,708.78,974,866.41,996.47c139.66,19.91,254.71-4.12,321.51-23.55q-14.76-52.12-29.53-104.25l343.45,82.57-244.48,261.27-26.22-92.94c-19.21,3.53-46.4,7.85-79.13,10.79-36.65,3.29-191,14.79-365.81-43.58C569.43,1014.41,438.78,873.9,365,792.68,215.85,628.36,163,459.08,164.94,461.79Z"/><path class="cls-1" d="M164.94,461.68c16.08,23,24.76,50.13,81.95,131C291.38,655.55,377,764.93,527,860.08,600.89,907,708.78,973.88,866.41,996.36c139.66,19.91,254.71-4.12,321.51-23.55q-14.76-52.12-29.53-104.25l343.45,82.57L1257.36,1212.4l-26.22-93c-19.21,3.54-46.4,7.86-79.13,10.8-36.65,3.29-191,14.79-365.81-43.58C569.43,1014.3,438.78,873.79,365,792.57,215.85,628.25,163,459,164.94,461.68Z"/><path class="cls-1" d="M164.94,461.57c16.08,23,24.76,50.13,81.95,131C291.38,655.44,377,764.82,527,860c73.94,46.92,181.83,113.8,339.46,136.28,139.66,19.91,254.71-4.12,321.51-23.55q-14.76-52.12-29.53-104.25L1501.84,951l-244.48,261.27-26.22-93c-19.21,3.53-46.4,7.86-79.13,10.8-36.65,3.29-191,14.79-365.81-43.58C569.43,1014.19,438.78,873.68,365,792.46,215.85,628.14,163,458.86,164.94,461.57Z"/><path class="cls-2" d="M164.94,461.46c16.08,23,24.76,50.12,81.95,131C291.38,655.33,377,764.71,527,859.85c73.94,46.93,181.83,113.81,339.46,136.29,139.66,19.91,254.71-4.12,321.51-23.56q-14.76-52.11-29.53-104.24l343.45,82.57-244.48,261.26-26.22-92.94c-19.21,3.53-46.4,7.86-79.13,10.8-36.65,3.29-191,14.79-365.81-43.58C569.43,1014.08,438.78,873.57,365,792.34,215.85,628,163,458.75,164.94,461.46Z"/><path class="cls-2" d="M164.94,461.34c16.08,23,24.76,50.13,81.95,131C291.38,655.21,377,764.59,527,859.74,600.89,906.66,708.78,973.55,866.41,996c139.66,19.92,254.71-4.11,321.51-23.55q-14.76-52.12-29.53-104.24l343.45,82.57-244.48,261.26-26.22-92.94c-19.21,3.53-46.4,7.86-79.13,10.8-36.65,3.29-191,14.79-365.81-43.58C569.43,1014,438.78,873.46,365,792.23,215.85,627.92,163,458.64,164.94,461.34Z"/><path class="cls-2" d="M164.94,461.23c16.08,23,24.76,50.13,81.95,131C291.38,655.1,377,764.48,527,859.63c73.94,46.92,181.83,113.81,339.46,136.28,139.66,19.91,254.71-4.12,321.51-23.55q-14.76-52.12-29.53-104.24l343.45,82.57Q1379.59,1081.31,1257.36,1212L1231.14,1119c-19.21,3.53-46.4,7.86-79.13,10.8-36.65,3.29-191,14.79-365.81-43.58C569.43,1013.85,438.78,873.35,365,792.12,215.85,627.81,163,458.53,164.94,461.23Z"/><path class="cls-2" d="M164.94,461.12c16.08,23,24.76,50.13,81.95,131C291.38,655,377,764.37,527,859.52c73.94,46.92,181.83,113.81,339.46,136.28,139.66,19.91,254.71-4.12,321.51-23.55q-14.76-52.12-29.53-104.25l343.45,82.57-244.48,261.27-26.22-92.94c-19.21,3.53-46.4,7.85-79.13,10.79-36.65,3.29-191,14.79-365.81-43.58C569.43,1013.74,438.78,873.23,365,792,215.85,627.69,163,458.41,164.94,461.12Z"/><path class="cls-2" d="M164.94,461c16.08,23,24.76,50.13,81.95,131C291.38,654.88,377,764.26,527,859.41c73.94,46.92,181.83,113.81,339.46,136.28,139.66,19.91,254.71-4.12,321.51-23.55q-14.76-52.12-29.53-104.25l343.45,82.57-244.48,261.27-26.22-93c-19.21,3.54-46.4,7.86-79.13,10.8-36.65,3.29-191,14.79-365.81-43.58C569.43,1013.63,438.78,873.12,365,791.9,215.85,627.58,163,458.3,164.94,461Z"/><path class="cls-2" d="M164.94,460.9c16.08,23,24.76,50.13,81.95,131C291.38,654.77,377,764.15,527,859.3c73.94,46.92,181.83,113.8,339.46,136.28,139.66,19.91,254.71-4.12,321.51-23.55q-14.76-52.12-29.53-104.25l343.45,82.57-244.48,261.27-26.22-92.95c-19.21,3.53-46.4,7.86-79.13,10.8-36.65,3.29-191,14.79-365.81-43.58C569.43,1013.52,438.78,873,365,791.79,215.85,627.47,163,458.19,164.94,460.9Z"/><path class="cls-3" d="M164.94,460.79c16.08,23,24.76,50.12,81.95,131C291.38,654.66,377,764,527,859.19,600.89,906.11,708.78,973,866.41,995.47c139.66,19.91,254.71-4.12,321.51-23.56q-14.76-52.11-29.53-104.24l343.45,82.57L1257.36,1211.5l-26.22-92.94c-19.21,3.53-46.4,7.86-79.13,10.8-36.65,3.29-191,14.79-365.81-43.58C569.43,1013.41,438.78,872.9,365,791.67,215.85,627.36,163,458.08,164.94,460.79Z"/><path class="cls-3" d="M164.94,460.68c16.08,23,24.76,50.12,81.95,131C291.38,654.54,377,763.92,527,859.07,600.89,906,708.78,972.88,866.41,995.35c139.66,19.92,254.71-4.11,321.51-23.55q-14.76-52.12-29.53-104.24l343.45,82.57-244.48,261.26-26.22-92.94c-19.21,3.53-46.4,7.86-79.13,10.8-36.65,3.29-191,14.79-365.81-43.58C569.43,1013.3,438.78,872.79,365,791.56,215.85,627.25,163,458,164.94,460.68Z"/><path class="cls-3" d="M164.94,460.56c16.08,23,24.76,50.13,81.95,131C291.38,654.43,377,763.81,527,859c73.94,46.92,181.83,113.81,339.46,136.28,139.66,19.91,254.71-4.11,321.51-23.55q-14.76-52.12-29.53-104.24L1501.84,950q-122.25,130.62-244.48,261.26l-26.22-92.94c-19.21,3.53-46.4,7.86-79.13,10.8-36.65,3.29-191,14.79-365.81-43.58C569.43,1013.18,438.78,872.68,365,791.45,215.85,627.14,163,457.86,164.94,460.56Z"/><path class="cls-3" d="M164.94,460.45c16.08,23,24.76,50.13,81.95,131C291.38,654.32,377,763.7,527,858.85c73.94,46.92,181.83,113.81,339.46,136.28,139.66,19.91,254.71-4.12,321.51-23.55q-14.76-52.12-29.53-104.24l343.45,82.56-244.48,261.27-26.22-92.94c-19.21,3.53-46.4,7.85-79.13,10.79-36.65,3.3-191,14.79-365.81-43.58C569.43,1013.07,438.78,872.56,365,791.34,215.85,627,163,457.75,164.94,460.45Z"/><path class="cls-4" d="M164.94,460.34c16.08,23,24.76,50.13,81.95,131C291.38,654.21,377,763.59,527,858.74,600.89,905.66,708.78,972.55,866.41,995c139.66,19.91,254.71-4.12,321.51-23.55q-14.76-52.12-29.53-104.25l343.45,82.57-244.48,261.27-26.22-92.94c-19.21,3.53-46.4,7.85-79.13,10.79-36.65,3.29-191,14.79-365.81-43.58C569.43,1013,438.78,872.45,365,791.23,215.85,626.91,163,457.63,164.94,460.34Z"/><path class="cls-4" d="M164.94,460.23c16.08,23,24.76,50.13,81.95,131C291.38,654.1,377,763.48,527,858.63c73.94,46.92,181.83,113.8,339.46,136.28,139.66,19.91,254.71-4.12,321.51-23.55q-14.76-52.12-29.53-104.25l343.45,82.57L1257.36,1211l-26.22-93c-19.21,3.54-46.4,7.86-79.13,10.8-36.65,3.29-191,14.79-365.81-43.58C569.43,1012.85,438.78,872.34,365,791.12,215.85,626.8,163,457.52,164.94,460.23Z"/><path class="cls-5" d="M164.94,460.12c16.08,23,24.76,50.12,81.95,131C291.38,654,377,763.37,527,858.52c73.94,46.92,181.83,113.8,339.46,136.28,139.66,19.91,254.71-4.12,321.51-23.56q-14.76-52.11-29.53-104.24l343.45,82.57-244.48,261.27-26.22-92.95c-19.21,3.53-46.4,7.86-79.13,10.8-36.65,3.29-191,14.79-365.81-43.58C569.43,1012.74,438.78,872.23,365,791,215.85,626.69,163,457.41,164.94,460.12Z"/><path class="cls-6" d="M164.94,460c16.08,23,24.76,50.12,81.95,131C291.38,653.87,377,763.26,527,858.4c73.94,46.93,181.83,113.81,339.46,136.28,139.66,19.92,254.71-4.11,321.51-23.55q-14.76-52.11-29.53-104.24l343.45,82.57-244.48,261.26-26.22-92.94c-19.21,3.53-46.4,7.86-79.13,10.8-36.65,3.29-191,14.79-365.81-43.58C569.43,1012.63,438.78,872.12,365,790.89,215.85,626.58,163,457.3,164.94,460Z"/><path class="cls-6" d="M164.94,459.89c16.08,23,24.76,50.13,81.95,131C291.38,653.76,377,763.14,527,858.29c73.94,46.92,181.83,113.81,339.46,136.28,139.66,19.92,254.71-4.11,321.51-23.55q-14.76-52.12-29.53-104.24l343.45,82.57Q1379.59,1080,1257.36,1210.61l-26.22-92.94c-19.21,3.53-46.4,7.86-79.13,10.8-36.65,3.29-191,14.79-365.81-43.58C569.43,1012.51,438.78,872,365,790.78,215.85,626.47,163,457.19,164.94,459.89Z"/><path class="cls-6" d="M164.94,459.78c16.08,23,24.76,50.13,81.95,131C291.38,653.65,377,763,527,858.18,600.89,905.1,708.78,972,866.41,994.46c139.66,19.91,254.71-4.12,321.51-23.55q-14.76-52.12-29.53-104.24l343.45,82.56L1257.36,1210.5l-26.22-92.94c-19.21,3.53-46.4,7.85-79.13,10.79-36.65,3.3-191,14.8-365.81-43.58C569.43,1012.4,438.78,871.89,365,790.67,215.85,626.35,163,457.08,164.94,459.78Z"/><path class="cls-6" d="M164.94,459.67c16.08,23,24.76,50.13,81.95,131C291.38,653.54,377,762.92,527,858.07,600.89,905,708.78,971.88,866.41,994.35c139.66,19.91,254.71-4.12,321.51-23.55q-14.76-52.12-29.53-104.25l343.45,82.57-244.48,261.27-26.22-92.94c-19.21,3.53-46.4,7.85-79.13,10.79-36.65,3.29-191,14.79-365.81-43.58C569.43,1012.29,438.78,871.78,365,790.56,215.85,626.24,163,457,164.94,459.67Z"/><path class="cls-6" d="M164.94,459.56c16.08,23,24.76,50.13,81.95,131C291.38,653.43,377,762.81,527,858c73.94,46.92,181.83,113.8,339.46,136.28,139.66,19.91,254.71-4.12,321.51-23.55q-14.76-52.12-29.53-104.25L1501.84,949l-244.48,261.27-26.22-93c-19.21,3.54-46.4,7.86-79.13,10.8-36.65,3.29-191,14.79-365.81-43.58C569.43,1012.18,438.78,871.67,365,790.45,215.85,626.13,163,456.85,164.94,459.56Z"/><path class="cls-7" d="M164.94,459.45c16.08,23,24.76,50.13,81.95,131C291.38,653.32,377,762.7,527,857.85c73.94,46.92,181.83,113.8,339.46,136.28,139.66,19.91,254.71-4.12,321.51-23.55q-14.76-52.12-29.53-104.25l343.45,82.57-244.48,261.27-26.22-93c-19.21,3.53-46.4,7.86-79.13,10.8-36.65,3.29-191,14.79-365.81-43.58C569.43,1012.07,438.78,871.56,365,790.33,215.85,626,163,456.74,164.94,459.45Z"/><path class="cls-7" d="M164.94,459.34c16.08,23,24.76,50.12,81.95,131C291.38,653.21,377,762.59,527,857.73,600.89,904.66,708.78,971.54,866.41,994c139.66,19.92,254.71-4.11,321.51-23.55q-14.76-52.11-29.53-104.24l343.45,82.57-244.48,261.26-26.22-92.94c-19.21,3.53-46.4,7.86-79.13,10.8-36.65,3.29-191,14.79-365.81-43.58C569.43,1012,438.78,871.45,365,790.22,215.85,625.91,163,456.63,164.94,459.34Z"/><path class="cls-7" d="M164.94,459.22c16.08,23,24.76,50.13,81.95,131C291.38,653.09,377,762.47,527,857.62c73.94,46.92,181.83,113.81,339.46,136.28,139.66,19.92,254.71-4.11,321.51-23.55q-14.76-52.12-29.53-104.24l343.45,82.57-244.48,261.26L1231.14,1117c-19.21,3.53-46.4,7.86-79.13,10.8-36.65,3.29-191,14.79-365.81-43.58C569.43,1011.84,438.78,871.34,365,790.11,215.85,625.8,163,456.52,164.94,459.22Z"/><path class="cls-7" d="M164.94,459.11c16.08,23,24.76,50.13,81.95,131C291.38,653,377,762.36,527,857.51c73.94,46.92,181.83,113.81,339.46,136.28,139.66,19.91,254.71-4.12,321.51-23.55q-14.76-52.12-29.53-104.24l343.45,82.56-244.48,261.27-26.22-92.94c-19.21,3.53-46.4,7.85-79.13,10.8-36.65,3.29-191,14.79-365.81-43.59C569.43,1011.73,438.78,871.22,365,790,215.85,625.69,163,456.41,164.94,459.11Z"/><path class="cls-7" d="M164.94,459c16.08,23,24.76,50.13,81.95,131C291.38,652.87,377,762.25,527,857.4c73.94,46.92,181.83,113.81,339.46,136.28,139.66,19.91,254.71-4.12,321.51-23.55q-14.76-52.12-29.53-104.25l343.45,82.57-244.48,261.27-26.22-92.94c-19.21,3.53-46.4,7.85-79.13,10.79-36.65,3.29-191,14.79-365.81-43.58C569.43,1011.62,438.78,871.11,365,789.89,215.85,625.57,163,456.29,164.94,459Z"/><path class="cls-7" d="M164.94,458.89c16.08,23,24.76,50.13,81.95,131C291.38,652.76,377,762.14,527,857.29c73.94,46.92,181.83,113.8,339.46,136.28,139.66,19.91,254.71-4.12,321.51-23.55q-14.76-52.12-29.53-104.25l343.45,82.57-244.48,261.27-26.22-92.95c-19.21,3.54-46.4,7.86-79.13,10.8-36.65,3.29-191,14.79-365.81-43.58C569.43,1011.51,438.78,871,365,789.78,215.85,625.46,163,456.18,164.94,458.89Z"/><path class="cls-8" d="M164.94,458.78c16.08,23,24.76,50.13,81.95,131C291.38,652.65,377,762,527,857.18,600.89,904.1,708.78,971,866.41,993.46c139.66,19.91,254.71-4.12,321.51-23.55q-14.76-52.12-29.53-104.25l343.45,82.57L1257.36,1209.5l-26.22-93c-19.21,3.53-46.4,7.86-79.13,10.8-36.65,3.29-191,14.79-365.81-43.58C569.43,1011.4,438.78,870.89,365,789.67,215.85,625.35,163,456.07,164.94,458.78Z"/><path class="cls-8" d="M164.94,458.67c16.08,23,24.76,50.12,81.95,131C291.38,652.54,377,761.92,527,857.06,600.89,904,708.78,970.87,866.41,993.35c139.66,19.91,254.71-4.12,321.51-23.56q-14.76-52.11-29.53-104.24l343.45,82.57-244.48,261.26-26.22-92.94c-19.21,3.53-46.4,7.86-79.13,10.8-36.65,3.29-191,14.79-365.81-43.58C569.43,1011.29,438.78,870.78,365,789.55,215.85,625.24,163,456,164.94,458.67Z"/><path class="cls-8" d="M164.94,458.55c16.08,23,24.76,50.13,81.95,131C291.38,652.42,377,761.8,527,857c73.94,46.92,181.83,113.81,339.46,136.28,139.66,19.92,254.71-4.11,321.51-23.55q-14.76-52.12-29.53-104.24L1501.84,948l-244.48,261.26-26.22-92.94c-19.21,3.53-46.4,7.86-79.13,10.8-36.65,3.29-191,14.79-365.81-43.58C569.43,1011.17,438.78,870.67,365,789.44,215.85,625.13,163,455.85,164.94,458.55Z"/><path class="cls-8" d="M164.94,458.44c16.08,23,24.76,50.13,81.95,131C291.38,652.31,377,761.69,527,856.84c73.94,46.92,181.83,113.81,339.46,136.28,139.66,19.91,254.71-4.11,321.51-23.55q-14.76-52.12-29.53-104.24l343.45,82.57q-122.25,130.62-244.48,261.26l-26.22-92.94c-19.21,3.53-46.4,7.86-79.13,10.8-36.65,3.29-191,14.79-365.81-43.58C569.43,1011.06,438.78,870.56,365,789.33,215.85,625,163,455.74,164.94,458.44Z"/><path class="cls-8" d="M164.94,458.33c16.08,23,24.76,50.13,81.95,131C291.38,652.2,377,761.58,527,856.73,600.89,903.65,708.78,970.54,866.41,993c139.66,19.91,254.71-4.12,321.51-23.55q-14.76-52.12-29.53-104.25l343.45,82.57-244.48,261.27-26.22-92.94c-19.21,3.53-46.4,7.85-79.13,10.79-36.65,3.29-191,14.79-365.81-43.58C569.43,1011,438.78,870.44,365,789.22,215.85,624.9,163,455.62,164.94,458.33Z"/><path class="cls-9" d="M164.94,458.22c16.08,23,24.76,50.13,81.95,131C291.38,652.09,377,761.47,527,856.62c73.94,46.92,181.83,113.81,339.46,136.28,139.66,19.91,254.71-4.12,321.51-23.55q-14.76-52.12-29.53-104.25l343.45,82.57-244.48,261.27-26.22-93c-19.21,3.54-46.4,7.86-79.13,10.8-36.65,3.29-191,14.79-365.81-43.58C569.43,1010.84,438.78,870.33,365,789.11,215.85,624.79,163,455.51,164.94,458.22Z"/><path class="cls-9" d="M164.94,458.11c16.08,23,24.76,50.13,81.95,131C291.38,652,377,761.36,527,856.51c73.94,46.92,181.83,113.8,339.46,136.28,139.66,19.91,254.71-4.12,321.51-23.55q-14.76-52.12-29.53-104.25l343.45,82.57-244.48,261.27-26.22-92.95c-19.21,3.53-46.4,7.86-79.13,10.8-36.65,3.29-191,14.79-365.81-43.58C569.43,1010.73,438.78,870.22,365,789,215.85,624.68,163,455.4,164.94,458.11Z"/><path class="cls-9" d="M164.94,458c16.08,23,24.76,50.12,81.95,131C291.38,651.87,377,761.25,527,856.4c73.94,46.92,181.83,113.8,339.46,136.28,139.66,19.91,254.71-4.12,321.51-23.56q-14.76-52.11-29.53-104.24l343.45,82.57-244.48,261.26-26.22-92.94c-19.21,3.53-46.4,7.86-79.13,10.8-36.65,3.29-191,14.79-365.81-43.58C569.43,1010.62,438.78,870.11,365,788.88,215.85,624.57,163,455.29,164.94,458Z"/><path class="cls-9" d="M164.94,457.89c16.08,23,24.76,50.12,81.95,131C291.38,651.75,377,761.13,527,856.28c73.94,46.92,181.83,113.81,339.46,136.28,139.66,19.92,254.71-4.11,321.51-23.55q-14.76-52.12-29.53-104.24l343.45,82.57L1257.36,1208.6l-26.22-92.94c-19.21,3.53-46.4,7.86-79.13,10.8-36.65,3.29-191,14.79-365.81-43.58C569.43,1010.51,438.78,870,365,788.77,215.85,624.46,163,455.18,164.94,457.89Z"/><path class="cls-9" d="M164.94,457.77c16.08,23,24.76,50.13,81.95,131C291.38,651.64,377,761,527,856.17,600.89,903.09,708.78,970,866.41,992.45c139.66,19.91,254.71-4.11,321.51-23.55q-14.76-52.12-29.53-104.24l343.45,82.57q-122.25,130.62-244.48,261.26l-26.22-92.94c-19.21,3.53-46.4,7.86-79.13,10.8-36.65,3.29-191,14.79-365.81-43.58C569.43,1010.39,438.78,869.89,365,788.66,215.85,624.35,163,455.07,164.94,457.77Z"/><path class="cls-9" d="M164.94,457.66c16.08,23,24.76,50.13,81.95,131C291.38,651.53,377,760.91,527,856.06,600.89,903,708.78,969.87,866.41,992.34c139.66,19.91,254.71-4.12,321.51-23.55q-14.76-52.12-29.53-104.24l343.45,82.56-244.48,261.27-26.22-92.94c-19.21,3.53-46.4,7.85-79.13,10.79-36.65,3.3-191,14.79-365.81-43.58C569.43,1010.28,438.78,869.77,365,788.55,215.85,624.23,163,455,164.94,457.66Z"/><path class="cls-10" d="M164.94,457.55c16.08,23,24.76,50.13,81.95,131C291.38,651.42,377,760.8,527,856c73.94,46.92,181.83,113.81,339.46,136.28,139.66,19.91,254.71-4.12,321.51-23.55q-14.76-52.12-29.53-104.25L1501.84,947l-244.48,261.27-26.22-92.94c-19.21,3.53-46.4,7.85-79.13,10.79-36.65,3.29-191,14.79-365.81-43.58C569.43,1010.17,438.78,869.66,365,788.44,215.85,624.12,163,454.84,164.94,457.55Z"/><path class="cls-10" d="M164.94,457.44c16.08,23,24.76,50.13,81.95,131C291.38,651.31,377,760.69,527,855.84c73.94,46.92,181.83,113.8,339.46,136.28,139.66,19.91,254.71-4.12,321.51-23.55q-14.76-52.12-29.53-104.25l343.45,82.57-244.48,261.27-26.22-93c-19.21,3.54-46.4,7.86-79.13,10.8-36.65,3.29-191,14.79-365.81-43.58C569.43,1010.06,438.78,869.55,365,788.33,215.85,624,163,454.73,164.94,457.44Z"/><path class="cls-10" d="M164.94,457.33c16.08,23,24.76,50.13,81.95,131C291.38,651.2,377,760.58,527,855.73,600.89,902.65,708.78,969.53,866.41,992c139.66,19.91,254.71-4.12,321.51-23.55q-14.76-52.12-29.53-104.25l343.45,82.57-244.48,261.27-26.22-93c-19.21,3.53-46.4,7.86-79.13,10.8-36.65,3.29-191,14.79-365.81-43.58C569.43,1010,438.78,869.44,365,788.21,215.85,623.9,163,454.62,164.94,457.33Z"/><path class="cls-10" d="M164.94,457.22c16.08,23,24.76,50.12,81.95,131C291.38,651.09,377,760.47,527,855.61c73.94,46.93,181.83,113.81,339.46,136.28,139.66,19.92,254.71-4.11,321.51-23.55q-14.76-52.11-29.53-104.24l343.45,82.57-244.48,261.26L1231.14,1115c-19.21,3.53-46.4,7.86-79.13,10.8-36.65,3.29-191,14.79-365.81-43.58C569.43,1009.84,438.78,869.33,365,788.1,215.85,623.79,163,454.51,164.94,457.22Z"/><path class="cls-10" d="M164.94,457.1c16.08,23,24.76,50.13,81.95,131C291.38,651,377,760.35,527,855.5c73.94,46.92,181.83,113.81,339.46,136.28,139.66,19.92,254.71-4.11,321.51-23.55q-14.76-52.12-29.53-104.24l343.45,82.57q-122.25,130.62-244.48,261.26l-26.22-92.94c-19.21,3.53-46.4,7.86-79.13,10.8-36.65,3.29-191,14.79-365.81-43.58C569.43,1009.72,438.78,869.22,365,788,215.85,623.68,163,454.4,164.94,457.1Z"/><path class="cls-10" d="M164.94,457c16.08,23,24.76,50.13,81.95,131C291.38,650.86,377,760.24,527,855.39c73.94,46.92,181.83,113.81,339.46,136.28,139.66,19.91,254.71-4.12,321.51-23.55q-14.76-52.12-29.53-104.24l343.45,82.56-244.48,261.27-26.22-92.94c-19.21,3.53-46.4,7.85-79.13,10.79-36.65,3.3-191,14.8-365.81-43.58C569.43,1009.61,438.78,869.1,365,787.88,215.85,623.56,163,454.29,164.94,457Z"/><path class="cls-11" d="M164.94,456.88c16.08,23,24.76,50.13,81.95,131C291.38,650.75,377,760.13,527,855.28c73.94,46.92,181.83,113.81,339.46,136.28,139.66,19.91,254.71-4.12,321.51-23.55q-14.76-52.12-29.53-104.25l343.45,82.57L1257.36,1207.6l-26.22-92.94c-19.21,3.53-46.4,7.85-79.13,10.79-36.65,3.29-191,14.79-365.81-43.58C569.43,1009.5,438.78,869,365,787.77,215.85,623.45,163,454.17,164.94,456.88Z"/><path class="cls-11" d="M164.94,456.77c16.08,23,24.76,50.13,81.95,131C291.38,650.64,377,760,527,855.17,600.89,902.09,708.78,969,866.41,991.45c139.66,19.91,254.71-4.12,321.51-23.55q-14.76-52.12-29.53-104.25l343.45,82.57-244.48,261.27-26.22-93c-19.21,3.54-46.4,7.86-79.13,10.8-36.65,3.29-191,14.79-365.81-43.58C569.43,1009.39,438.78,868.88,365,787.66,215.85,623.34,163,454.06,164.94,456.77Z"/><path class="cls-12" d="M164.94,456.66c16.08,23,24.76,50.13,81.95,131C291.38,650.53,377,759.91,527,855.06,600.89,902,708.78,968.86,866.41,991.34c139.66,19.91,254.71-4.12,321.51-23.55q-14.76-52.12-29.53-104.25l343.45,82.57-244.48,261.27-26.22-93c-19.21,3.53-46.4,7.86-79.13,10.8-36.65,3.29-191,14.79-365.81-43.58C569.43,1009.28,438.78,868.77,365,787.54,215.85,623.23,163,454,164.94,456.66Z"/><path class="cls-12" d="M164.94,456.55c16.08,23,24.76,50.12,81.95,131C291.38,650.42,377,759.8,527,854.94c73.94,46.93,181.83,113.81,339.46,136.29,139.66,19.91,254.71-4.12,321.51-23.56q-14.76-52.11-29.53-104.24L1501.84,946l-244.48,261.26-26.22-92.94c-19.21,3.53-46.4,7.86-79.13,10.8-36.65,3.29-191,14.79-365.81-43.58C569.43,1009.17,438.78,868.66,365,787.43,215.85,623.12,163,453.84,164.94,456.55Z"/><path class="cls-12" d="M164.94,456.43c16.08,23,24.76,50.13,81.95,131C291.38,650.3,377,759.68,527,854.83c73.94,46.92,181.83,113.81,339.46,136.28,139.66,19.92,254.71-4.11,321.51-23.55q-14.76-52.12-29.53-104.24l343.45,82.57-244.48,261.26-26.22-92.94c-19.21,3.53-46.4,7.86-79.13,10.8-36.65,3.29-191,14.79-365.81-43.58C569.43,1009.05,438.78,868.55,365,787.32,215.85,623,163,453.73,164.94,456.43Z"/><path class="cls-12" d="M164.94,456.32c16.08,23,24.76,50.13,81.95,131C291.38,650.19,377,759.57,527,854.72,600.89,901.64,708.78,968.53,866.41,991c139.66,19.91,254.71-4.12,321.51-23.55q-14.76-52.12-29.53-104.24l343.45,82.56L1257.36,1207l-26.22-92.94c-19.21,3.53-46.4,7.85-79.13,10.8-36.65,3.29-191,14.79-365.81-43.59C569.43,1008.94,438.78,868.43,365,787.21,215.85,622.9,163,453.62,164.94,456.32Z"/><path class="cls-13" d="M164.94,456.21c16.08,23,24.76,50.13,81.95,131C291.38,650.08,377,759.46,527,854.61c73.94,46.92,181.83,113.81,339.46,136.28,139.66,19.91,254.71-4.12,321.51-23.55q-14.76-52.12-29.53-104.25l343.45,82.57-244.48,261.27L1231.14,1114c-19.21,3.53-46.4,7.85-79.13,10.79-36.65,3.29-191,14.79-365.81-43.58C569.43,1008.83,438.78,868.32,365,787.1,215.85,622.78,163,453.5,164.94,456.21Z"/><path class="cls-13" d="M164.94,456.1c16.08,23,24.76,50.13,81.95,131C291.38,650,377,759.35,527,854.5c73.94,46.92,181.83,113.81,339.46,136.28,139.66,19.91,254.71-4.12,321.51-23.55q-14.76-52.12-29.53-104.25l343.45,82.57-244.48,261.27-26.22-93c-19.21,3.54-46.4,7.86-79.13,10.8-36.65,3.29-191,14.79-365.81-43.58C569.43,1008.72,438.78,868.21,365,787,215.85,622.67,163,453.39,164.94,456.1Z"/><path class="cls-13" d="M164.94,456c16.08,23,24.76,50.13,81.95,131C291.38,649.86,377,759.24,527,854.39c73.94,46.92,181.83,113.8,339.46,136.28,139.66,19.91,254.71-4.12,321.51-23.55q-14.76-52.12-29.53-104.25l343.45,82.57-244.48,261.27-26.22-93c-19.21,3.53-46.4,7.86-79.13,10.8-36.65,3.29-191,14.79-365.81-43.58C569.43,1008.61,438.78,868.1,365,786.88,215.85,622.56,163,453.28,164.94,456Z"/><path class="cls-13" d="M164.94,455.88c16.08,23,24.76,50.12,81.95,131C291.38,649.75,377,759.13,527,854.27c73.94,46.93,181.83,113.81,339.46,136.29,139.66,19.91,254.71-4.12,321.51-23.56q-14.76-52.11-29.53-104.24l343.45,82.57-244.48,261.26-26.22-92.94c-19.21,3.53-46.4,7.86-79.13,10.8-36.65,3.29-191,14.79-365.81-43.58C569.43,1008.5,438.78,868,365,786.76,215.85,622.45,163,453.17,164.94,455.88Z"/><path class="cls-13" d="M164.94,455.77c16.08,23,24.76,50.12,81.95,131C291.38,649.63,377,759,527,854.16,600.89,901.08,708.78,968,866.41,990.44c139.66,19.92,254.71-4.11,321.51-23.55q-14.76-52.12-29.53-104.24l343.45,82.57-244.48,261.26-26.22-92.94c-19.21,3.53-46.4,7.86-79.13,10.8-36.65,3.29-191,14.79-365.81-43.58C569.43,1008.39,438.78,867.88,365,786.65,215.85,622.34,163,453.06,164.94,455.77Z"/><path class="cls-13" d="M164.94,455.65c16.08,23,24.76,50.13,81.95,131C291.38,649.52,377,758.9,527,854.05,600.89,901,708.78,967.86,866.41,990.33c139.66,19.91,254.71-4.11,321.51-23.55q-14.76-52.12-29.53-104.24l343.45,82.57q-122.25,130.62-244.48,261.26l-26.22-92.94c-19.21,3.53-46.4,7.86-79.13,10.8-36.65,3.29-191,14.79-365.81-43.58C569.43,1008.27,438.78,867.77,365,786.54,215.85,622.23,163,453,164.94,455.65Z"/><path class="cls-14" d="M164.94,455.54c16.08,23,24.76,50.13,81.95,131C291.38,649.41,377,758.79,527,853.94c73.94,46.92,181.83,113.81,339.46,136.28,139.66,19.91,254.71-4.12,321.51-23.55q-14.76-52.12-29.53-104.25L1501.84,945l-244.48,261.27-26.22-92.94c-19.21,3.53-46.4,7.85-79.13,10.79-36.65,3.29-191,14.79-365.81-43.58C569.43,1008.16,438.78,867.65,365,786.43,215.85,622.11,163,452.83,164.94,455.54Z"/><path class="cls-14" d="M164.94,455.43c16.08,23,24.76,50.13,81.95,131C291.38,649.3,377,758.68,527,853.83c73.94,46.92,181.83,113.81,339.46,136.28,139.66,19.91,254.71-4.12,321.51-23.55q-14.76-52.12-29.53-104.25l343.45,82.57-244.48,261.27-26.22-93c-19.21,3.54-46.4,7.86-79.13,10.8-36.65,3.29-191,14.79-365.81-43.58C569.43,1008.05,438.78,867.54,365,786.32,215.85,622,163,452.72,164.94,455.43Z"/><path class="cls-14" d="M164.94,455.32c16.08,23,24.76,50.13,81.95,131C291.38,649.19,377,758.57,527,853.72,600.89,900.64,708.78,967.52,866.41,990c139.66,19.91,254.71-4.12,321.51-23.55q-14.76-52.12-29.53-104.25l343.45,82.57L1257.36,1206l-26.22-93c-19.21,3.53-46.4,7.86-79.13,10.8-36.65,3.29-191,14.79-365.81-43.58C569.43,1007.94,438.78,867.43,365,786.21,215.85,621.89,163,452.61,164.94,455.32Z"/><path class="cls-14" d="M164.94,455.21c16.08,23,24.76,50.12,81.95,131C291.38,649.08,377,758.46,527,853.61c73.94,46.92,181.83,113.8,339.46,136.28,139.66,19.91,254.71-4.12,321.51-23.56q-14.76-52.11-29.53-104.24l343.45,82.57-244.48,261.26L1231.14,1113c-19.21,3.53-46.4,7.86-79.13,10.8-36.65,3.29-191,14.79-365.81-43.58C569.43,1007.83,438.78,867.32,365,786.09,215.85,621.78,163,452.5,164.94,455.21Z"/><path class="cls-14" d="M164.94,455.1c16.08,23,24.76,50.12,81.95,131C291.38,649,377,758.34,527,853.49c73.94,46.92,181.83,113.81,339.46,136.28,139.66,19.92,254.71-4.11,321.51-23.55q-14.76-52.11-29.53-104.24l343.45,82.57-244.48,261.26-26.22-92.94c-19.21,3.53-46.4,7.86-79.13,10.8-36.65,3.29-191,14.79-365.81-43.58C569.43,1007.72,438.78,867.21,365,786,215.85,621.67,163,452.39,164.94,455.1Z"/><path class="cls-15" d="M164.94,455c16.08,23,24.76,50.13,81.95,131C291.38,648.85,377,758.23,527,853.38c73.94,46.92,181.83,113.81,339.46,136.28,139.66,19.91,254.71-4.11,321.51-23.55q-14.76-52.12-29.53-104.24l343.45,82.57q-122.25,130.62-244.48,261.26l-26.22-92.94c-19.21,3.53-46.4,7.86-79.13,10.8-36.65,3.29-191,14.79-365.81-43.58C569.43,1007.6,438.78,867.1,365,785.87,215.85,621.56,163,452.28,164.94,455Z"/><path class="cls-15" d="M164.94,454.87c16.08,23,24.76,50.13,81.95,131C291.38,648.74,377,758.12,527,853.27c73.94,46.92,181.83,113.81,339.46,136.28,139.66,19.91,254.71-4.12,321.51-23.55q-14.76-52.12-29.53-104.24l343.45,82.56-244.48,261.27-26.22-92.94c-19.21,3.53-46.4,7.85-79.13,10.79-36.65,3.3-191,14.79-365.81-43.58C569.43,1007.49,438.78,867,365,785.76,215.85,621.44,163,452.17,164.94,454.87Z"/><path class="cls-16" d="M164.94,454.76c16.08,23,24.76,50.13,81.95,131C291.38,648.63,377,758,527,853.16,600.89,900.08,708.78,967,866.41,989.44c139.66,19.91,254.71-4.12,321.51-23.55q-14.76-52.12-29.53-104.25l343.45,82.57-244.48,261.27-26.22-92.94c-19.21,3.53-46.4,7.85-79.13,10.79-36.65,3.29-191,14.79-365.81-43.58C569.43,1007.38,438.78,866.87,365,785.65,215.85,621.33,163,452.05,164.94,454.76Z"/><path class="cls-16" d="M164.94,454.65c16.08,23,24.76,50.13,81.95,131C291.38,648.52,377,757.9,527,853.05,600.89,900,708.78,966.85,866.41,989.33c139.66,19.91,254.71-4.12,321.51-23.55q-14.76-52.12-29.53-104.25l343.45,82.57-244.48,261.27-26.22-92.95c-19.21,3.54-46.4,7.86-79.13,10.8-36.65,3.29-191,14.79-365.81-43.58C569.43,1007.27,438.78,866.76,365,785.54,215.85,621.22,163,451.94,164.94,454.65Z"/><path class="cls-16" d="M164.94,454.54c16.08,23,24.76,50.13,81.95,131C291.38,648.41,377,757.79,527,852.94c73.94,46.92,181.83,113.8,339.46,136.28,139.66,19.91,254.71-4.12,321.51-23.55q-14.76-52.12-29.53-104.25L1501.84,944l-244.48,261.27-26.22-93c-19.21,3.53-46.4,7.86-79.13,10.8-36.65,3.29-191,14.79-365.81-43.58C569.43,1007.16,438.78,866.65,365,785.42,215.85,621.11,163,451.83,164.94,454.54Z"/><path class="cls-16" d="M164.94,454.43c16.08,23,24.76,50.12,81.95,131C291.38,648.3,377,757.68,527,852.82c73.94,46.93,181.83,113.81,339.46,136.28,139.66,19.92,254.71-4.11,321.51-23.55q-14.76-52.11-29.53-104.24l343.45,82.57-244.48,261.26-26.22-92.94c-19.21,3.53-46.4,7.86-79.13,10.8-36.65,3.29-191,14.79-365.81-43.58C569.43,1007.05,438.78,866.54,365,785.31,215.85,621,163,451.72,164.94,454.43Z"/><path class="cls-17" d="M164.94,454.31c16.08,23,24.76,50.13,81.95,131C291.38,648.18,377,757.56,527,852.71,600.89,899.63,708.78,966.52,866.41,989c139.66,19.92,254.71-4.11,321.51-23.55q-14.76-52.12-29.53-104.24l343.45,82.57Q1379.59,1074.39,1257.36,1205l-26.22-92.94c-19.21,3.53-46.4,7.86-79.13,10.8-36.65,3.29-191,14.79-365.81-43.58C569.43,1006.93,438.78,866.43,365,785.2,215.85,620.89,163,451.61,164.94,454.31Z"/><path class="cls-17" d="M164.94,454.2c16.08,23,24.76,50.13,81.95,131C291.38,648.07,377,757.45,527,852.6c73.94,46.92,181.83,113.81,339.46,136.28,139.66,19.91,254.71-4.12,321.51-23.55q-14.76-52.12-29.53-104.24l343.45,82.56-244.48,261.27L1231.14,1112c-19.21,3.53-46.4,7.85-79.13,10.79-36.65,3.3-191,14.8-365.81-43.58C569.43,1006.82,438.78,866.31,365,785.09,215.85,620.77,163,451.5,164.94,454.2Z"/><path class="cls-17" d="M164.94,454.09c16.08,23,24.76,50.13,81.95,131C291.38,648,377,757.34,527,852.49c73.94,46.92,181.83,113.81,339.46,136.28,139.66,19.91,254.71-4.12,321.51-23.55Q1173.16,913.1,1158.39,861l343.45,82.57-244.48,261.27-26.22-92.94c-19.21,3.53-46.4,7.85-79.13,10.79-36.65,3.29-191,14.79-365.81-43.58C569.43,1006.71,438.78,866.2,365,785,215.85,620.66,163,451.38,164.94,454.09Z"/><path class="cls-17" d="M164.94,454c16.08,23,24.76,50.13,81.95,131C291.38,647.85,377,757.23,527,852.38c73.94,46.92,181.83,113.8,339.46,136.28,139.66,19.91,254.71-4.12,321.51-23.55q-14.76-52.12-29.53-104.25l343.45,82.57L1257.36,1204.7l-26.22-93c-19.21,3.54-46.4,7.86-79.13,10.8-36.65,3.29-191,14.79-365.81-43.58C569.43,1006.6,438.78,866.09,365,784.87,215.85,620.55,163,451.27,164.94,454Z"/><path class="cls-17" d="M164.94,453.87c16.08,23,24.76,50.13,81.95,131C291.38,647.74,377,757.12,527,852.27c73.94,46.92,181.83,113.8,339.46,136.28,139.66,19.91,254.71-4.12,321.51-23.55q-14.76-52.12-29.53-104.25l343.45,82.57-244.48,261.27-26.22-92.95c-19.21,3.53-46.4,7.86-79.13,10.8-36.65,3.29-191,14.79-365.81-43.58C569.43,1006.49,438.78,866,365,784.75,215.85,620.44,163,451.16,164.94,453.87Z"/><path class="cls-17" d="M164.94,453.76c16.08,23,24.76,50.12,81.95,131C291.38,647.63,377,757,527,852.15,600.89,899.08,708.78,966,866.41,988.44c139.66,19.91,254.71-4.12,321.51-23.56q-14.76-52.11-29.53-104.24l343.45,82.57-244.48,261.26-26.22-92.94c-19.21,3.53-46.4,7.86-79.13,10.8-36.65,3.29-191,14.79-365.81-43.58C569.43,1006.38,438.78,865.87,365,784.64,215.85,620.33,163,451.05,164.94,453.76Z"/><path class="cls-18" d="M164.94,453.64c16.08,23,24.76,50.13,81.95,131C291.38,647.51,377,756.89,527,852,600.89,899,708.78,965.85,866.41,988.32c139.66,19.92,254.71-4.11,321.51-23.55q-14.76-52.12-29.53-104.24l343.45,82.57-244.48,261.26-26.22-92.94c-19.21,3.53-46.4,7.86-79.13,10.8-36.65,3.29-191,14.79-365.81-43.58C569.43,1006.26,438.78,865.76,365,784.53,215.85,620.22,163,450.94,164.94,453.64Z"/><path class="cls-18" d="M164.94,453.53c16.08,23,24.76,50.13,81.95,131C291.38,647.4,377,756.78,527,851.93c73.94,46.92,181.83,113.81,339.46,136.28,139.66,19.91,254.71-4.12,321.51-23.55q-14.76-52.12-29.53-104.24L1501.84,943q-122.25,130.62-244.48,261.26l-26.22-92.94c-19.21,3.53-46.4,7.86-79.13,10.8-36.65,3.29-191,14.79-365.81-43.59C569.43,1006.15,438.78,865.64,365,784.42,215.85,620.11,163,450.83,164.94,453.53Z"/><path class="cls-18" d="M164.94,453.42c16.08,23,24.76,50.13,81.95,131C291.38,647.29,377,756.67,527,851.82c73.94,46.92,181.83,113.81,339.46,136.28,139.66,19.91,254.71-4.12,321.51-23.55q-14.76-52.12-29.53-104.25l343.45,82.57-244.48,261.27-26.22-92.94c-19.21,3.53-46.4,7.85-79.13,10.79-36.65,3.29-191,14.79-365.81-43.58C569.43,1006,438.78,865.53,365,784.31,215.85,620,163,450.71,164.94,453.42Z"/><path class="cls-19" d="M164.94,453.31c16.08,23,24.76,50.13,81.95,131C291.38,647.18,377,756.56,527,851.71,600.89,898.63,708.78,965.52,866.41,988c139.66,19.91,254.71-4.12,321.51-23.55q-14.76-52.12-29.53-104.25l343.45,82.57L1257.36,1204l-26.22-93c-19.21,3.54-46.4,7.86-79.13,10.8-36.65,3.29-191,14.79-365.81-43.58C569.43,1005.93,438.78,865.42,365,784.2,215.85,619.88,163,450.6,164.94,453.31Z"/><path class="cls-19" d="M164.94,453.2c16.08,23,24.76,50.13,81.95,131C291.38,647.07,377,756.45,527,851.6c73.94,46.92,181.83,113.8,339.46,136.28,139.66,19.91,254.71-4.12,321.51-23.55q-14.76-52.12-29.53-104.25l343.45,82.57-244.48,261.27-26.22-93c-19.21,3.53-46.4,7.86-79.13,10.8-36.65,3.29-191,14.79-365.81-43.58C569.43,1005.82,438.78,865.31,365,784.09,215.85,619.77,163,450.49,164.94,453.2Z"/><path class="cls-19" d="M164.94,453.09c16.08,23,24.76,50.12,81.95,131C291.38,647,377,756.34,527,851.48c73.94,46.93,181.83,113.81,339.46,136.29,139.66,19.91,254.71-4.12,321.51-23.56Q1173.16,912.1,1158.39,860l343.45,82.57L1257.36,1203.8l-26.22-92.94c-19.21,3.53-46.4,7.86-79.13,10.8-36.65,3.29-191,14.79-365.81-43.58C569.43,1005.71,438.78,865.2,365,784,215.85,619.66,163,450.38,164.94,453.09Z"/><path class="cls-20" d="M164.94,453C181,476,189.7,503.1,246.89,584,291.38,646.84,377,756.22,527,851.37c73.94,46.92,181.83,113.81,339.46,136.28,139.66,19.92,254.71-4.11,321.51-23.55q-14.76-52.12-29.53-104.24l343.45,82.57-244.48,261.26-26.22-92.94c-19.21,3.53-46.4,7.86-79.13,10.8-36.65,3.29-191,14.79-365.81-43.58C569.43,1005.6,438.78,865.09,365,783.86,215.85,619.55,163,450.27,164.94,453Z"/><path class="cls-20" d="M164.94,452.86c16.08,23,24.76,50.13,81.95,131C291.38,646.73,377,756.11,527,851.26c73.94,46.92,181.83,113.81,339.46,136.28,139.66,19.91,254.71-4.11,321.51-23.55q-14.76-52.12-29.53-104.24l343.45,82.57q-122.25,130.62-244.48,261.26l-26.22-92.94c-19.21,3.53-46.4,7.86-79.13,10.8-36.65,3.29-191,14.79-365.81-43.58C569.43,1005.48,438.78,865,365,783.75,215.85,619.44,163,450.16,164.94,452.86Z"/><path class="cls-20" d="M164.94,452.75c16.08,23,24.76,50.13,81.95,131C291.38,646.62,377,756,527,851.15,600.89,898.07,708.78,965,866.41,987.43c139.66,19.91,254.71-4.12,321.51-23.55q-14.76-52.12-29.53-104.24l343.45,82.56-244.48,261.27-26.22-92.94c-19.21,3.53-46.4,7.85-79.13,10.79-36.65,3.29-191,14.79-365.81-43.58C569.43,1005.37,438.78,864.86,365,783.64,215.85,619.32,163,450,164.94,452.75Z"/><path class="cls-20" d="M164.94,452.64c16.08,23,24.76,50.13,81.95,131C291.38,646.51,377,755.89,527,851,600.89,898,708.78,964.85,866.41,987.32c139.66,19.91,254.71-4.12,321.51-23.55q-14.76-52.12-29.53-104.25l343.45,82.57-244.48,261.27-26.22-92.95c-19.21,3.54-46.4,7.86-79.13,10.8-36.65,3.29-191,14.79-365.81-43.58C569.43,1005.26,438.78,864.75,365,783.53,215.85,619.21,163,449.93,164.94,452.64Z"/><path class="cls-20" d="M164.94,452.53c16.08,23,24.76,50.13,81.95,131C291.38,646.4,377,755.78,527,850.93c73.94,46.92,181.83,113.8,339.46,136.28,139.66,19.91,254.71-4.12,321.51-23.55q-14.76-52.12-29.53-104.25L1501.84,942l-244.48,261.27-26.22-93c-19.21,3.53-46.4,7.86-79.13,10.8-36.65,3.29-191,14.79-365.81-43.58C569.43,1005.15,438.78,864.64,365,783.42,215.85,619.1,163,449.82,164.94,452.53Z"/><path class="cls-20" d="M164.94,452.42c16.08,23,24.76,50.12,81.95,131C291.38,646.29,377,755.67,527,850.82c73.94,46.92,181.83,113.8,339.46,136.28,139.66,19.91,254.71-4.12,321.51-23.56q-14.76-52.11-29.53-104.24l343.45,82.57-244.48,261.27-26.22-93c-19.21,3.53-46.4,7.86-79.13,10.8-36.65,3.29-191,14.79-365.81-43.58C569.43,1005,438.78,864.53,365,783.3,215.85,619,163,449.71,164.94,452.42Z"/><path class="cls-21" d="M164.94,452.31c16.08,23,24.76,50.12,81.95,131C291.38,646.17,377,755.55,527,850.7,600.89,897.63,708.78,964.51,866.41,987c139.66,19.92,254.71-4.11,321.51-23.55q-14.76-52.11-29.53-104.24l343.45,82.57L1257.36,1203l-26.22-92.94c-19.21,3.53-46.4,7.86-79.13,10.8-36.65,3.29-191,14.79-365.81-43.58C569.43,1004.93,438.78,864.42,365,783.19,215.85,618.88,163,449.6,164.94,452.31Z"/><path class="cls-21" d="M164.94,452.19c16.08,23,24.76,50.13,81.95,131C291.38,646.06,377,755.44,527,850.59c73.94,46.92,181.83,113.81,339.46,136.28,139.66,19.91,254.71-4.11,321.51-23.55q-14.76-52.12-29.53-104.24l343.45,82.57q-122.25,130.62-244.48,261.26L1231.14,1110c-19.21,3.53-46.4,7.86-79.13,10.8-36.65,3.29-191,14.79-365.81-43.58C569.43,1004.81,438.78,864.31,365,783.08,215.85,618.77,163,449.49,164.94,452.19Z"/><path class="cls-21" d="M164.94,452.08c16.08,23,24.76,50.13,81.95,131C291.38,646,377,755.33,527,850.48c73.94,46.92,181.83,113.81,339.46,136.28,139.66,19.91,254.71-4.12,321.51-23.55q-14.76-52.12-29.53-104.24l343.45,82.56L1257.36,1202.8l-26.22-92.94c-19.21,3.53-46.4,7.85-79.13,10.79-36.65,3.3-191,14.79-365.81-43.58C569.43,1004.7,438.78,864.19,365,783,215.85,618.65,163,449.38,164.94,452.08Z"/><path class="cls-21" d="M164.94,452C181,475,189.7,502.1,246.89,583,291.38,645.84,377,755.22,527,850.37c73.94,46.92,181.83,113.81,339.46,136.28,139.66,19.91,254.71-4.12,321.51-23.55q-14.76-52.12-29.53-104.25l343.45,82.57-244.48,261.27-26.22-92.94c-19.21,3.53-46.4,7.85-79.13,10.79-36.65,3.29-191,14.79-365.81-43.58C569.43,1004.59,438.78,864.08,365,782.86,215.85,618.54,163,449.26,164.94,452Z"/><path class="cls-22" d="M164.94,451.86c16.08,23,24.76,50.13,81.95,131C291.38,645.73,377,755.11,527,850.26c73.94,46.92,181.83,113.8,339.46,136.28,139.66,19.91,254.71-4.12,321.51-23.55q-14.76-52.12-29.53-104.25l343.45,82.57-244.48,261.27-26.22-92.95c-19.21,3.54-46.4,7.86-79.13,10.8-36.65,3.29-191,14.79-365.81-43.58C569.43,1004.48,438.78,864,365,782.75,215.85,618.43,163,449.15,164.94,451.86Z"/><path class="cls-22" d="M164.94,451.75c16.08,23,24.76,50.13,81.95,131C291.38,645.62,377,755,527,850.15,600.89,897.07,708.78,964,866.41,986.43c139.66,19.91,254.71-4.12,321.51-23.55q-14.76-52.12-29.53-104.25l343.45,82.57-244.48,261.27-26.22-93c-19.21,3.53-46.4,7.86-79.13,10.8-36.65,3.29-191,14.79-365.81-43.58C569.43,1004.37,438.78,863.86,365,782.63,215.85,618.32,163,449,164.94,451.75Z"/><path class="cls-23" d="M164.94,451.64c16.08,23,24.76,50.12,81.95,131C291.38,645.51,377,754.89,527,850,600.89,897,708.78,963.84,866.41,986.31c139.66,19.92,254.71-4.11,321.51-23.55q-14.76-52.11-29.53-104.24l343.45,82.57-244.48,261.26-26.22-92.94c-19.21,3.53-46.4,7.86-79.13,10.8-36.65,3.29-191,14.79-365.81-43.58C569.43,1004.26,438.78,863.75,365,782.52,215.85,618.21,163,448.93,164.94,451.64Z"/><path class="cls-23" d="M164.94,451.52c16.08,23,24.76,50.13,81.95,131C291.38,645.39,377,754.77,527,849.92c73.94,46.92,181.83,113.81,339.46,136.28,139.66,19.92,254.71-4.11,321.51-23.55q-14.76-52.12-29.53-104.24L1501.84,941q-122.25,130.62-244.48,261.26l-26.22-92.94c-19.21,3.53-46.4,7.86-79.13,10.8-36.65,3.29-191,14.79-365.81-43.58C569.43,1004.14,438.78,863.64,365,782.41,215.85,618.1,163,448.82,164.94,451.52Z"/><path class="cls-23" d="M164.94,451.41c16.08,23,24.76,50.13,81.95,131C291.38,645.28,377,754.66,527,849.81c73.94,46.92,181.83,113.81,339.46,136.28,139.66,19.91,254.71-4.12,321.51-23.55q-14.76-52.12-29.53-104.24l343.45,82.56-244.48,261.27-26.22-92.94c-19.21,3.53-46.4,7.85-79.13,10.79-36.65,3.3-191,14.8-365.81-43.58C569.43,1004,438.78,863.52,365,782.3,215.85,618,163,448.71,164.94,451.41Z"/><path class="cls-23" d="M164.94,451.3c16.08,23,24.76,50.13,81.95,131C291.38,645.17,377,754.55,527,849.7,600.89,896.62,708.78,963.51,866.41,986c139.66,19.91,254.71-4.12,321.51-23.55q-14.76-52.12-29.53-104.25l343.45,82.57L1257.36,1202l-26.22-92.94c-19.21,3.53-46.4,7.85-79.13,10.79-36.65,3.29-191,14.79-365.81-43.58C569.43,1003.92,438.78,863.41,365,782.19,215.85,617.87,163,448.59,164.94,451.3Z"/><path class="cls-23" d="M164.94,451.19c16.08,23,24.76,50.13,81.95,131C291.38,645.06,377,754.44,527,849.59c73.94,46.92,181.83,113.8,339.46,136.28,139.66,19.91,254.71-4.12,321.51-23.55q-14.76-52.12-29.53-104.25l343.45,82.57-244.48,261.27-26.22-93c-19.21,3.54-46.4,7.86-79.13,10.8-36.65,3.29-191,14.79-365.81-43.58C569.43,1003.81,438.78,863.3,365,782.08,215.85,617.76,163,448.48,164.94,451.19Z"/><path class="cls-24" d="M164.94,451.08c16.08,23,24.76,50.13,81.95,131C291.38,645,377,754.33,527,849.48c73.94,46.92,181.83,113.8,339.46,136.28,139.66,19.91,254.71-4.12,321.51-23.55q-14.76-52.12-29.53-104.25l343.45,82.57L1257.36,1201.8l-26.22-93c-19.21,3.53-46.4,7.86-79.13,10.8-36.65,3.29-191,14.79-365.81-43.58C569.43,1003.7,438.78,863.19,365,782,215.85,617.65,163,448.37,164.94,451.08Z"/><path class="cls-24" d="M164.94,451c16.08,23,24.76,50.12,81.95,131C291.38,644.84,377,754.22,527,849.36c73.94,46.93,181.83,113.81,339.46,136.29,139.66,19.91,254.71-4.12,321.51-23.56q-14.76-52.11-29.53-104.24l343.45,82.57-244.48,261.26-26.22-92.94c-19.21,3.53-46.4,7.86-79.13,10.8-36.65,3.29-191,14.79-365.81-43.58C569.43,1003.59,438.78,863.08,365,781.85,215.85,617.54,163,448.26,164.94,451Z"/><path class="cls-24" d="M164.94,450.85c16.08,23,24.76,50.13,81.95,131C291.38,644.72,377,754.1,527,849.25c73.94,46.92,181.83,113.81,339.46,136.28,139.66,19.92,254.71-4.11,321.51-23.55q-14.76-52.12-29.53-104.24l343.45,82.57-244.48,261.26-26.22-92.94c-19.21,3.53-46.4,7.86-79.13,10.8-36.65,3.29-191,14.79-365.81-43.58C569.43,1003.47,438.78,863,365,781.74,215.85,617.43,163,448.15,164.94,450.85Z"/><path class="cls-24" d="M164.94,450.74c16.08,23,24.76,50.13,81.95,131C291.38,644.61,377,754,527,849.14,600.89,896.06,708.78,963,866.41,985.42c139.66,19.91,254.71-4.12,321.51-23.55q-14.76-52.12-29.53-104.24l343.45,82.57q-122.25,130.62-244.48,261.26l-26.22-92.94c-19.21,3.53-46.4,7.86-79.13,10.8-36.65,3.29-191,14.79-365.81-43.58C569.43,1003.36,438.78,862.85,365,781.63,215.85,617.32,163,448,164.94,450.74Z"/><path class="cls-24" d="M164.94,450.63c16.08,23,24.76,50.13,81.95,131C291.38,644.5,377,753.88,527,849,600.89,896,708.78,962.84,866.41,985.31c139.66,19.91,254.71-4.12,321.51-23.55q-14.76-52.12-29.53-104.25l343.45,82.57-244.48,261.27-26.22-92.94c-19.21,3.53-46.4,7.85-79.13,10.79-36.65,3.29-191,14.79-365.81-43.58C569.43,1003.25,438.78,862.74,365,781.52,215.85,617.2,163,447.92,164.94,450.63Z"/><path class="cls-24" d="M164.94,450.52c16.08,23,24.76,50.13,81.95,131C291.38,644.39,377,753.77,527,848.92c73.94,46.92,181.83,113.81,339.46,136.28,139.66,19.91,254.71-4.12,321.51-23.55q-14.76-52.12-29.53-104.25L1501.84,940l-244.48,261.27-26.22-93c-19.21,3.54-46.4,7.86-79.13,10.8-36.65,3.29-191,14.79-365.81-43.58C569.43,1003.14,438.78,862.63,365,781.41,215.85,617.09,163,447.81,164.94,450.52Z"/><path class="cls-25" d="M164.94,450.41c16.08,23,24.76,50.13,81.95,131C291.38,644.28,377,753.66,527,848.81c73.94,46.92,181.83,113.8,339.46,136.28,139.66,19.91,254.71-4.12,321.51-23.55q-14.76-52.12-29.53-104.25l343.45,82.57-244.48,261.27-26.22-93c-19.21,3.53-46.4,7.86-79.13,10.8-36.65,3.29-191,14.79-365.81-43.58C569.43,1003,438.78,862.52,365,781.3,215.85,617,163,447.7,164.94,450.41Z"/><path class="cls-25" d="M164.94,450.3c16.08,23,24.76,50.12,81.95,131C291.38,644.17,377,753.55,527,848.7,600.89,895.62,708.78,962.5,866.41,985c139.66,19.91,254.71-4.12,321.51-23.56q-14.76-52.11-29.53-104.24l343.45,82.57L1257.36,1201l-26.22-92.94c-19.21,3.53-46.4,7.86-79.13,10.8-36.65,3.29-191,14.79-365.81-43.58C569.43,1002.92,438.78,862.41,365,781.18,215.85,616.87,163,447.59,164.94,450.3Z"/><path class="cls-25" d="M164.94,450.19c16.08,23,24.76,50.12,81.95,131C291.38,644.05,377,753.43,527,848.58c73.94,46.92,181.83,113.81,339.46,136.28,139.66,19.92,254.71-4.11,321.51-23.55q-14.76-52.12-29.53-104.24l343.45,82.57L1257.36,1200.9,1231.14,1108c-19.21,3.53-46.4,7.86-79.13,10.8-36.65,3.29-191,14.79-365.81-43.58C569.43,1002.81,438.78,862.3,365,781.07,215.85,616.76,163,447.48,164.94,450.19Z"/><path class="cls-25" d="M164.94,450.07c16.08,23,24.76,50.13,81.95,131C291.38,643.94,377,753.32,527,848.47c73.94,46.92,181.83,113.81,339.46,136.28,139.66,19.91,254.71-4.11,321.51-23.55q-14.76-52.12-29.53-104.24l343.45,82.57q-122.25,130.62-244.48,261.26l-26.22-92.94c-19.21,3.53-46.4,7.86-79.13,10.8-36.65,3.29-191,14.79-365.81-43.58C569.43,1002.69,438.78,862.19,365,781,215.85,616.65,163,447.37,164.94,450.07Z"/><path class="cls-26" d="M164.94,450c16.08,23,24.76,50.13,81.95,131C291.38,643.83,377,753.21,527,848.36c73.94,46.92,181.83,113.81,339.46,136.28,139.66,19.91,254.71-4.12,321.51-23.55q-14.76-52.12-29.53-104.24l343.45,82.56-244.48,261.27-26.22-92.94c-19.21,3.53-46.4,7.85-79.13,10.79-36.65,3.3-191,14.79-365.81-43.58C569.43,1002.58,438.78,862.07,365,780.85,215.85,616.53,163,447.26,164.94,450Z"/><path class="cls-26" d="M164.94,449.85c16.08,23,24.76,50.13,81.95,131C291.38,643.72,377,753.1,527,848.25c73.94,46.92,181.83,113.81,339.46,136.28,139.66,19.91,254.71-4.12,321.51-23.55q-14.76-52.12-29.53-104.25l343.45,82.57-244.48,261.27-26.22-92.94c-19.21,3.53-46.4,7.85-79.13,10.79-36.65,3.29-191,14.79-365.81-43.58C569.43,1002.47,438.78,862,365,780.74,215.85,616.42,163,447.14,164.94,449.85Z"/><path class="cls-27" d="M164.94,449.74c16.08,23,24.76,50.13,81.95,131C291.38,643.61,377,753,527,848.14c73.94,46.92,181.83,113.8,339.46,136.28,139.66,19.91,254.71-4.12,321.51-23.55q-14.76-52.12-29.53-104.25l343.45,82.57-244.48,261.27-26.22-93c-19.21,3.54-46.4,7.86-79.13,10.8-36.65,3.29-191,14.79-365.81-43.58C569.43,1002.36,438.78,861.85,365,780.63,215.85,616.31,163,447,164.94,449.74Z"/><path class="cls-27" d="M164.94,449.63c16.08,23,24.76,50.12,81.95,131C291.38,643.5,377,752.88,527,848,600.89,895,708.78,961.83,866.41,984.31c139.66,19.91,254.71-4.12,321.51-23.56q-14.76-52.11-29.53-104.24l343.45,82.57-244.48,261.27-26.22-92.95c-19.21,3.53-46.4,7.86-79.13,10.8-36.65,3.29-191,14.79-365.81-43.58C569.43,1002.25,438.78,861.74,365,780.51,215.85,616.2,163,446.92,164.94,449.63Z"/><path class="cls-27" d="M164.94,449.52c16.08,23,24.76,50.12,81.95,131C291.38,643.38,377,752.77,527,847.91c73.94,46.93,181.83,113.81,339.46,136.28,139.66,19.92,254.71-4.11,321.51-23.55q-14.76-52.11-29.53-104.24L1501.84,939l-244.48,261.26-26.22-92.94c-19.21,3.53-46.4,7.86-79.13,10.8-36.65,3.29-191,14.79-365.81-43.58C569.43,1002.14,438.78,861.63,365,780.4,215.85,616.09,163,446.81,164.94,449.52Z"/><path class="cls-27" d="M164.94,449.4c16.08,23,24.76,50.13,81.95,131C291.38,643.27,377,752.65,527,847.8c73.94,46.92,181.83,113.81,339.46,136.28,139.66,19.92,254.71-4.11,321.51-23.55q-14.76-52.12-29.53-104.24l343.45,82.57q-122.25,130.62-244.48,261.26l-26.22-92.94c-19.21,3.53-46.4,7.86-79.13,10.8-36.65,3.29-191,14.79-365.81-43.58C569.43,1002,438.78,861.52,365,780.29,215.85,616,163,446.7,164.94,449.4Z"/><path class="cls-27" d="M164.94,449.29c16.08,23,24.76,50.13,81.95,131C291.38,643.16,377,752.54,527,847.69,600.89,894.61,708.78,961.5,866.41,984c139.66,19.91,254.71-4.12,321.51-23.55q-14.76-52.12-29.53-104.24l343.45,82.56L1257.36,1200l-26.22-92.94c-19.21,3.53-46.4,7.85-79.13,10.79-36.65,3.3-191,14.8-365.81-43.58C569.43,1001.91,438.78,861.4,365,780.18,215.85,615.86,163,446.59,164.94,449.29Z"/><path class="cls-27" d="M164.94,449.18c16.08,23,24.76,50.13,81.95,131C291.38,643.05,377,752.43,527,847.58c73.94,46.92,181.83,113.81,339.46,136.28,139.66,19.91,254.71-4.12,321.51-23.55q-14.76-52.12-29.53-104.25l343.45,82.57L1257.36,1199.9,1231.14,1107c-19.21,3.53-46.4,7.85-79.13,10.79-36.65,3.29-191,14.79-365.81-43.58C569.43,1001.8,438.78,861.29,365,780.07,215.85,615.75,163,446.47,164.94,449.18Z"/><path class="cls-28" d="M164.94,449.07c16.08,23,24.76,50.13,81.95,131C291.38,642.94,377,752.32,527,847.47c73.94,46.92,181.83,113.8,339.46,136.28,139.66,19.91,254.71-4.12,321.51-23.55q-14.76-52.12-29.53-104.25l343.45,82.57-244.48,261.27-26.22-93c-19.21,3.54-46.4,7.86-79.13,10.8-36.65,3.29-191,14.79-365.81-43.58C569.43,1001.69,438.78,861.18,365,780,215.85,615.64,163,446.36,164.94,449.07Z"/><path class="cls-28" d="M164.94,449c16.08,23,24.76,50.13,81.95,131C291.38,642.83,377,752.21,527,847.36c73.94,46.92,181.83,113.8,339.46,136.28,139.66,19.91,254.71-4.12,321.51-23.55q-14.76-52.12-29.53-104.25l343.45,82.57-244.48,261.27-26.22-93c-19.21,3.53-46.4,7.86-79.13,10.8-36.65,3.29-191,14.79-365.81-43.58C569.43,1001.58,438.78,861.07,365,779.84,215.85,615.53,163,446.25,164.94,449Z"/><path class="cls-28" d="M164.94,448.85c16.08,23,24.76,50.12,81.95,131C291.38,642.72,377,752.1,527,847.24c73.94,46.93,181.83,113.81,339.46,136.28,139.66,19.92,254.71-4.11,321.51-23.55q-14.76-52.11-29.53-104.24l343.45,82.57-244.48,261.26-26.22-92.94c-19.21,3.53-46.4,7.86-79.13,10.8-36.65,3.29-191,14.79-365.81-43.58C569.43,1001.47,438.78,861,365,779.73,215.85,615.42,163,446.14,164.94,448.85Z"/><path class="cls-28" d="M164.94,448.73c16.08,23,24.76,50.13,81.95,131C291.38,642.6,377,752,527,847.13c73.94,46.92,181.83,113.81,339.46,136.28,139.66,19.92,254.71-4.11,321.51-23.55q-14.76-52.12-29.53-104.24l343.45,82.57-244.48,261.26-26.22-92.94c-19.21,3.53-46.4,7.86-79.13,10.8-36.65,3.29-191,14.79-365.81-43.58C569.43,1001.35,438.78,860.85,365,779.62,215.85,615.31,163,446,164.94,448.73Z"/><path class="cls-28" d="M164.94,448.62c16.08,23,24.76,50.13,81.95,131C291.38,642.49,377,751.87,527,847c73.94,46.92,181.83,113.81,339.46,136.28,139.66,19.91,254.71-4.12,321.51-23.55q-14.76-52.12-29.53-104.24l343.45,82.56-244.48,261.27-26.22-92.94c-19.21,3.53-46.4,7.85-79.13,10.79-36.65,3.3-191,14.8-365.81-43.58C569.43,1001.24,438.78,860.73,365,779.51,215.85,615.19,163,445.92,164.94,448.62Z"/><path class="cls-28" d="M164.94,448.51c16.08,23,24.76,50.13,81.95,131C291.38,642.38,377,751.76,527,846.91c73.94,46.92,181.83,113.81,339.46,136.28,139.66,19.91,254.71-4.12,321.51-23.55q-14.76-52.12-29.53-104.25L1501.84,938l-244.48,261.27-26.22-92.94c-19.21,3.53-46.4,7.85-79.13,10.79-36.65,3.29-191,14.79-365.81-43.58C569.43,1001.13,438.78,860.62,365,779.4,215.85,615.08,163,445.8,164.94,448.51Z"/><path class="cls-29" d="M164.94,448.4c16.08,23,24.76,50.13,81.95,131C291.38,642.27,377,751.65,527,846.8c73.94,46.92,181.83,113.8,339.46,136.28,139.66,19.91,254.71-4.12,321.51-23.55q-14.76-52.12-29.53-104.25l343.45,82.57-244.48,261.27-26.22-92.95c-19.21,3.54-46.4,7.86-79.13,10.8-36.65,3.29-191,14.79-365.81-43.58C569.43,1001,438.78,860.51,365,779.29,215.85,615,163,445.69,164.94,448.4Z"/><path class="cls-29" d="M164.94,448.29c16.08,23,24.76,50.13,81.95,131C291.38,642.16,377,751.54,527,846.69,600.89,893.61,708.78,960.49,866.41,983c139.66,19.91,254.71-4.12,321.51-23.55q-14.76-52.12-29.53-104.25l343.45,82.57L1257.36,1199l-26.22-93c-19.21,3.53-46.4,7.86-79.13,10.8-36.65,3.29-191,14.79-365.81-43.58C569.43,1000.91,438.78,860.4,365,779.18,215.85,614.86,163,445.58,164.94,448.29Z"/><path class="cls-29" d="M164.94,448.18c16.08,23,24.76,50.12,81.95,131C291.38,642.05,377,751.43,527,846.57c73.94,46.93,181.83,113.81,339.46,136.29,139.66,19.91,254.71-4.12,321.51-23.56q-14.76-52.11-29.53-104.24l343.45,82.57-244.48,261.26L1231.14,1106c-19.21,3.53-46.4,7.86-79.13,10.8-36.65,3.29-191,14.79-365.81-43.58C569.43,1000.8,438.78,860.29,365,779.06,215.85,614.75,163,445.47,164.94,448.18Z"/><path class="cls-29" d="M164.94,448.06c16.08,23,24.76,50.13,81.95,131C291.38,641.93,377,751.31,527,846.46c73.94,46.92,181.83,113.81,339.46,136.28,139.66,19.92,254.71-4.11,321.51-23.55q-14.76-52.12-29.53-104.24l343.45,82.57-244.48,261.26-26.22-92.94c-19.21,3.53-46.4,7.86-79.13,10.8-36.65,3.29-191,14.79-365.81-43.58C569.43,1000.68,438.78,860.18,365,779,215.85,614.64,163,445.36,164.94,448.06Z"/><path class="cls-29" d="M164.94,448c16.08,23,24.76,50.13,81.95,131C291.38,641.82,377,751.2,527,846.35c73.94,46.92,181.83,113.81,339.46,136.28,139.66,19.91,254.71-4.12,321.51-23.55q-14.76-52.12-29.53-104.24l343.45,82.57Q1379.59,1068,1257.36,1198.67l-26.22-92.94c-19.21,3.53-46.4,7.86-79.13,10.8-36.65,3.29-191,14.79-365.81-43.58C569.43,1000.57,438.78,860.07,365,778.84,215.85,614.53,163,445.25,164.94,448Z"/><path class="cls-30" d="M164.94,447.84c16.08,23,24.76,50.13,81.95,131C291.38,641.71,377,751.09,527,846.24c73.94,46.92,181.83,113.81,339.46,136.28,139.66,19.91,254.71-4.12,321.51-23.55q-14.76-52.12-29.53-104.25l343.45,82.57-244.48,261.27-26.22-92.94c-19.21,3.53-46.4,7.85-79.13,10.79-36.65,3.29-191,14.79-365.81-43.58C569.43,1000.46,438.78,860,365,778.73,215.85,614.41,163,445.13,164.94,447.84Z"/><path class="cls-30" d="M164.94,447.73c16.08,23,24.76,50.13,81.95,131C291.38,641.6,377,751,527,846.13c73.94,46.92,181.83,113.81,339.46,136.28,139.66,19.91,254.71-4.12,321.51-23.55q-14.76-52.12-29.53-104.25l343.45,82.57-244.48,261.27-26.22-93c-19.21,3.54-46.4,7.86-79.13,10.8-36.65,3.29-191,14.79-365.81-43.58C569.43,1000.35,438.78,859.84,365,778.62,215.85,614.3,163,445,164.94,447.73Z"/><path class="cls-30" d="M164.94,447.62c16.08,23,24.76,50.13,81.95,131C291.38,641.49,377,750.87,527,846c73.94,46.92,181.83,113.8,339.46,136.28,139.66,19.91,254.71-4.12,321.51-23.55q-14.76-52.12-29.53-104.25l343.45,82.57-244.48,261.27-26.22-92.95c-19.21,3.53-46.4,7.86-79.13,10.8-36.65,3.29-191,14.79-365.81-43.58C569.43,1000.24,438.78,859.73,365,778.51,215.85,614.19,163,444.91,164.94,447.62Z"/><path class="cls-30" d="M164.94,447.51c16.08,23,24.76,50.12,81.95,131C291.38,641.38,377,750.76,527,845.91c73.94,46.92,181.83,113.8,339.46,136.28,139.66,19.91,254.71-4.12,321.51-23.56q-14.76-52.11-29.53-104.24L1501.84,937l-244.48,261.26-26.22-92.94c-19.21,3.53-46.4,7.86-79.13,10.8-36.65,3.29-191,14.79-365.81-43.58C569.43,1000.13,438.78,859.62,365,778.39,215.85,614.08,163,444.8,164.94,447.51Z"/><path class="cls-30" d="M164.94,447.4c16.08,23,24.76,50.12,81.95,131C291.38,641.26,377,750.64,527,845.79c73.94,46.92,181.83,113.81,339.46,136.28,139.66,19.92,254.71-4.11,321.51-23.55q-14.76-52.12-29.53-104.24l343.45,82.57-244.48,261.26-26.22-92.94c-19.21,3.53-46.4,7.86-79.13,10.8-36.65,3.29-191,14.79-365.81-43.58C569.43,1000,438.78,859.51,365,778.28,215.85,614,163,444.69,164.94,447.4Z"/><path class="cls-30" d="M164.94,447.28c16.08,23,24.76,50.13,81.95,131C291.38,641.15,377,750.53,527,845.68,600.89,892.6,708.78,959.49,866.41,982c139.66,19.91,254.71-4.11,321.51-23.55q-14.76-52.12-29.53-104.24l343.45,82.57Q1379.59,1067.36,1257.36,1198l-26.22-92.94c-19.21,3.53-46.4,7.86-79.13,10.8-36.65,3.29-191,14.79-365.81-43.58C569.43,999.9,438.78,859.4,365,778.17,215.85,613.86,163,444.58,164.94,447.28Z"/><path class="cls-31" d="M164.94,447.17c16.08,23,24.76,50.13,81.95,131C291.38,641,377,750.42,527,845.57c73.94,46.92,181.83,113.81,339.46,136.28,139.66,19.91,254.71-4.12,321.51-23.55q-14.76-52.12-29.53-104.24l343.45,82.56-244.48,261.27L1231.14,1105c-19.21,3.53-46.4,7.85-79.13,10.79-36.65,3.3-191,14.79-365.81-43.58C569.43,999.79,438.78,859.28,365,778.06,215.85,613.74,163,444.47,164.94,447.17Z"/><path class="cls-31" d="M164.94,447.06c16.08,23,24.76,50.13,81.95,131C291.38,640.93,377,750.31,527,845.46c73.94,46.92,181.83,113.81,339.46,136.28,139.66,19.91,254.71-4.12,321.51-23.55q-14.76-52.12-29.53-104.25l343.45,82.57-244.48,261.27-26.22-92.94c-19.21,3.53-46.4,7.85-79.13,10.79-36.65,3.29-191,14.79-365.81-43.58C569.43,999.68,438.78,859.17,365,778,215.85,613.63,163,444.35,164.94,447.06Z"/><path class="cls-31" d="M164.94,447c16.08,23,24.76,50.13,81.95,131C291.38,640.82,377,750.2,527,845.35c73.94,46.92,181.83,113.8,339.46,136.28,139.66,19.91,254.71-4.12,321.51-23.55q-14.76-52.12-29.53-104.25l343.45,82.57-244.48,261.27-26.22-93c-19.21,3.54-46.4,7.86-79.13,10.8-36.65,3.29-191,14.79-365.81-43.58C569.43,999.57,438.78,859.06,365,777.84,215.85,613.52,163,444.24,164.94,447Z"/><path class="cls-31" d="M164.94,446.84c16.08,23,24.76,50.12,81.95,131C291.38,640.71,377,750.09,527,845.24,600.89,892.16,708.78,959,866.41,981.52c139.66,19.91,254.71-4.12,321.51-23.56q-14.76-52.11-29.53-104.24l343.45,82.57-244.48,261.27-26.22-93c-19.21,3.53-46.4,7.86-79.13,10.8-36.65,3.29-191,14.79-365.81-43.58C569.43,999.46,438.78,859,365,777.72,215.85,613.41,163,444.13,164.94,446.84Z"/><path class="cls-31" d="M164.94,446.73c16.08,23,24.76,50.12,81.95,131C291.38,640.6,377,750,527,845.12c73.94,46.93,181.83,113.81,339.46,136.28,139.66,19.92,254.71-4.11,321.51-23.55q-14.76-52.11-29.53-104.24l343.45,82.57-244.48,261.26-26.22-92.94c-19.21,3.53-46.4,7.86-79.13,10.8-36.65,3.29-191,14.79-365.81-43.58C569.43,999.35,438.78,858.84,365,777.61,215.85,613.3,163,444,164.94,446.73Z"/><path class="cls-32" d="M164.94,446.61c16.08,23,24.76,50.13,81.95,131C291.38,640.48,377,749.86,527,845c73.94,46.92,181.83,113.81,339.46,136.28,139.66,19.92,254.71-4.11,321.51-23.55q-14.76-52.12-29.53-104.24l343.45,82.57q-122.25,130.62-244.48,261.26l-26.22-92.94c-19.21,3.53-46.4,7.86-79.13,10.8-36.65,3.29-191,14.79-365.81-43.58C569.43,999.23,438.78,858.73,365,777.5,215.85,613.19,163,443.91,164.94,446.61Z"/><path class="cls-33" d="M164.94,446.5c16.08,23,24.76,50.13,81.95,131C291.38,640.37,377,749.75,527,844.9c73.94,46.92,181.83,113.81,339.46,136.28,139.66,19.91,254.71-4.12,321.51-23.55q-14.76-52.12-29.53-104.24L1501.84,936l-244.48,261.27-26.22-92.94c-19.21,3.53-46.4,7.85-79.13,10.79-36.65,3.3-191,14.8-365.81-43.58C569.43,999.12,438.78,858.61,365,777.39,215.85,613.07,163,443.8,164.94,446.5Z"/><path class="cls-33" d="M164.94,446.39c16.08,23,24.76,50.13,81.95,131C291.38,640.26,377,749.64,527,844.79c73.94,46.92,181.83,113.81,339.46,136.28,139.66,19.91,254.71-4.12,321.51-23.55q-14.76-52.12-29.53-104.25l343.45,82.57-244.48,261.27-26.22-92.94c-19.21,3.53-46.4,7.85-79.13,10.79-36.65,3.29-191,14.79-365.81-43.58C569.43,999,438.78,858.5,365,777.28,215.85,613,163,443.68,164.94,446.39Z"/><path class="cls-34" d="M164.94,446.28c16.08,23,24.76,50.13,81.95,131C291.38,640.15,377,749.53,527,844.68,600.89,891.6,708.78,958.48,866.41,981c139.66,19.91,254.71-4.12,321.51-23.55q-14.76-52.12-29.53-104.25l343.45,82.57L1257.36,1197l-26.22-93c-19.21,3.54-46.4,7.86-79.13,10.8-36.65,3.29-191,14.79-365.81-43.58C569.43,998.9,438.78,858.39,365,777.17,215.85,612.85,163,443.57,164.94,446.28Z"/><path class="cls-34" d="M164.94,446.17c16.08,23,24.76,50.13,81.95,131C291.38,640,377,749.42,527,844.57c73.94,46.92,181.83,113.8,339.46,136.28,139.66,19.91,254.71-4.12,321.51-23.55q-14.76-52.12-29.53-104.25l343.45,82.57-244.48,261.27-26.22-93c-19.21,3.53-46.4,7.86-79.13,10.8-36.65,3.29-191,14.79-365.81-43.58C569.43,998.79,438.78,858.28,365,777.05,215.85,612.74,163,443.46,164.94,446.17Z"/><path class="cls-34" d="M164.94,446.06c16.08,23,24.76,50.12,81.95,131C291.38,639.93,377,749.31,527,844.45c73.94,46.93,181.83,113.81,339.46,136.28,139.66,19.92,254.71-4.11,321.51-23.55q-14.76-52.11-29.53-104.24l343.45,82.57-244.48,261.26-26.22-92.94c-19.21,3.53-46.4,7.86-79.13,10.8-36.65,3.29-191,14.79-365.81-43.58C569.43,998.68,438.78,858.17,365,776.94,215.85,612.63,163,443.35,164.94,446.06Z"/><path class="cls-34" d="M164.94,445.94c16.08,23,24.76,50.13,81.95,131C291.38,639.81,377,749.19,527,844.34c73.94,46.92,181.83,113.81,339.46,136.28,139.66,19.92,254.71-4.11,321.51-23.55q-14.76-52.12-29.53-104.24l343.45,82.57-244.48,261.26-26.22-92.94c-19.21,3.53-46.4,7.86-79.13,10.8-36.65,3.29-191,14.79-365.81-43.58C569.43,998.56,438.78,858.06,365,776.83,215.85,612.52,163,443.24,164.94,445.94Z"/><path class="cls-35" d="M164.94,445.83c16.08,23,24.76,50.13,81.95,131C291.38,639.7,377,749.08,527,844.23,600.89,891.15,708.78,958,866.41,980.51c139.66,19.91,254.71-4.12,321.51-23.55q-14.76-52.12-29.53-104.24l343.45,82.56-244.48,261.27-26.22-92.94c-19.21,3.53-46.4,7.85-79.13,10.8-36.65,3.29-191,14.79-365.81-43.59C569.43,998.45,438.78,857.94,365,776.72,215.85,612.41,163,443.13,164.94,445.83Z"/><path class="cls-35" d="M164.94,445.72c16.08,23,24.76,50.13,81.95,131C291.38,639.59,377,749,527,844.12,600.89,891,708.78,957.93,866.41,980.4c139.66,19.91,254.71-4.12,321.51-23.55q-14.76-52.12-29.53-104.25l343.45,82.57-244.48,261.27-26.22-92.94c-19.21,3.53-46.4,7.85-79.13,10.79-36.65,3.29-191,14.79-365.81-43.58C569.43,998.34,438.78,857.83,365,776.61,215.85,612.29,163,443,164.94,445.72Z"/><path class="cls-35" d="M164.94,445.61c16.08,23,24.76,50.13,81.95,131C291.38,639.48,377,748.86,527,844c73.94,46.92,181.83,113.8,339.46,136.28,139.66,19.91,254.71-4.12,321.51-23.55q-14.76-52.12-29.53-104.25l343.45,82.57-244.48,261.27-26.22-92.95c-19.21,3.54-46.4,7.86-79.13,10.8-36.65,3.29-191,14.79-365.81-43.58C569.43,998.23,438.78,857.72,365,776.5,215.85,612.18,163,442.9,164.94,445.61Z"/><path class="cls-35" d="M164.94,445.5c16.08,23,24.76,50.13,81.95,131C291.38,639.37,377,748.75,527,843.9c73.94,46.92,181.83,113.8,339.46,136.28,139.66,19.91,254.71-4.12,321.51-23.55q-14.76-52.12-29.53-104.25L1501.84,935l-244.48,261.27-26.22-93c-19.21,3.53-46.4,7.86-79.13,10.8-36.65,3.29-191,14.79-365.81-43.58C569.43,998.12,438.78,857.61,365,776.39,215.85,612.07,163,442.79,164.94,445.5Z"/><path class="cls-35" d="M164.94,445.39c16.08,23,24.76,50.12,81.95,131C291.38,639.26,377,748.64,527,843.78c73.94,46.93,181.83,113.81,339.46,136.29,139.66,19.91,254.71-4.12,321.51-23.56q-14.76-52.11-29.53-104.24l343.45,82.57L1257.36,1196.1l-26.22-92.94c-19.21,3.53-46.4,7.86-79.13,10.8-36.65,3.29-191,14.79-365.81-43.58C569.43,998,438.78,857.5,365,776.27,215.85,612,163,442.68,164.94,445.39Z"/><path class="cls-35" d="M164.94,445.27c16.08,23,24.76,50.13,81.95,131C291.38,639.14,377,748.52,527,843.67,600.89,890.59,708.78,957.48,866.41,980c139.66,19.92,254.71-4.11,321.51-23.55q-14.76-52.12-29.53-104.24l343.45,82.57L1257.36,1196l-26.22-92.94c-19.21,3.53-46.4,7.86-79.13,10.8-36.65,3.29-191,14.79-365.81-43.58C569.43,997.9,438.78,857.39,365,776.16,215.85,611.85,163,442.57,164.94,445.27Z"/><path class="cls-36" d="M164.94,445.16c16.08,23,24.76,50.13,81.95,131C291.38,639,377,748.41,527,843.56c73.94,46.92,181.83,113.81,339.46,136.28,139.66,19.91,254.71-4.11,321.51-23.55q-14.76-52.12-29.53-104.24l343.45,82.57q-122.25,130.62-244.48,261.26l-26.22-92.94c-19.21,3.53-46.4,7.86-79.13,10.8-36.65,3.29-191,14.79-365.81-43.58C569.43,997.78,438.78,857.28,365,776.05,215.85,611.74,163,442.46,164.94,445.16Z"/><path class="cls-36" d="M164.94,445.05c16.08,23,24.76,50.13,81.95,131C291.38,638.92,377,748.3,527,843.45c73.94,46.92,181.83,113.81,339.46,136.28,139.66,19.91,254.71-4.12,321.51-23.55q-14.76-52.12-29.53-104.25l343.45,82.57-244.48,261.27-26.22-92.94c-19.21,3.53-46.4,7.85-79.13,10.79-36.65,3.29-191,14.79-365.81-43.58C569.43,997.67,438.78,857.16,365,775.94,215.85,611.62,163,442.34,164.94,445.05Z"/><path class="cls-36" d="M164.94,444.94c16.08,23,24.76,50.13,81.95,131C291.38,638.81,377,748.19,527,843.34c73.94,46.92,181.83,113.81,339.46,136.28,139.66,19.91,254.71-4.12,321.51-23.55q-14.76-52.12-29.53-104.25l343.45,82.57-244.48,261.27-26.22-93c-19.21,3.54-46.4,7.86-79.13,10.8-36.65,3.29-191,14.79-365.81-43.58C569.43,997.56,438.78,857.05,365,775.83,215.85,611.51,163,442.23,164.94,444.94Z"/></g></svg>