<svg xmlns="http://www.w3.org/2000/svg" viewBox="0 0 1666.72 1875.06"><defs><style>.cls-1{fill:#181466;}</style></defs><g id="Capa_7" data-name="Capa 7"><path class="cls-1" d="M1489.46,336.69c-16.08,23-24.76,50.12-82,131-44.49,62.89-130.13,172.27-280.06,267.41C1053.51,782,945.62,848.89,788,871.37c-139.66,19.91-254.71-4.12-321.51-23.56Q481.24,795.7,496,743.57L152.56,826.14,397,1087.4l26.22-92.94c19.21,3.53,46.39,7.86,79.13,10.8,36.65,3.29,191,14.79,365.81-43.58C1085,889.31,1215.62,748.8,1289.37,667.57,1438.55,503.26,1491.36,334,1489.46,336.69Z"/><path d="M748.17,1181.33c0-31.22,22.35-53.72,53.43-53.72,27.23,0,47.95,17,52.54,43.07H826c-3.4-10.07-12.58-16.43-23.83-16.43-14.8,0-25.45,11.25-25.45,27.08s10.65,27.09,25.45,27.09c11.55,0,21-6.81,24.27-17.47h28c-4.29,26.64-25.15,44.11-52.83,44.11C770.52,1235.06,748.17,1212.56,748.17,1181.33Z"/><path d="M911.27,1207.23h42.47v25.9H883.45v-103.6h27.82Z"/><path d="M1021.38,1208.71h15.09v24.42H978.31v-24.42h15.1v-55.2h-14.8v-24h57.57v24h-14.8Z"/><path d="M1062.08,1181.33c0-31.22,22.35-53.72,53.42-53.72,27.24,0,48,17,52.54,43.07h-28.12c-3.4-10.07-12.58-16.43-23.82-16.43-14.8,0-25.46,11.25-25.46,27.08s10.66,27.09,25.46,27.09c11.54,0,21-6.81,24.27-17.47h28c-4.29,26.64-25.16,44.11-52.84,44.11C1084.43,1235.06,1062.08,1212.56,1062.08,1181.33Z"/><path d="M1249.15,1180.3l34.18,49.72v3.11h-31.67l-26.34-40.25v40.25h-28v-103.6h28v40l25.6-40h30.34v3.11Z"/><path d="M903.64,1297.53,941.38,1398v3.11H912.52l-4.88-16H874.19l-5.18,16H840.45V1398L878,1297.53Zm-2.51,65.57-10.21-29.31-10.21,29.31Z"/><path d="M1026,1297.53h27.53v103.6h-21.31l-37.74-51.8L995,1376v25.16H967.43v-103.6h21l38,52.1-.44-23.38Z"/><path d="M1088.64,1401.13v-103.6h41.29c31.82,0,54,20.87,54,51.8s-22.2,51.8-54,51.8Zm27.83-25.9h12.13c16.28,0,26.79-10.06,26.79-25.9s-10.51-25.9-26.79-25.9h-12.13Z"/><path d="M792.72,1569.13v-103.6H834c31.82,0,54,20.87,54,51.8s-22.2,51.8-54,51.8Zm27.82-25.9h12.14c16.28,0,26.79-10.06,26.79-25.9s-10.51-25.9-26.79-25.9H820.54Z"/><path d="M1000.66,1566v3.11H970.17l-24.57-36.7v36.7H917.93v-103.6h39.36c24.28,0,38.93,13.18,38.93,34.49,0,14.8-7.25,25.75-20,30.63Zm-55.2-52.68h11.09c7.55,0,12-3.85,12-11.1s-4.44-11.25-12-11.25H945.46Z"/><path d="M1081.17,1465.53,1118.91,1566v3.11h-28.86l-4.89-16h-33.44l-5.18,16H1018V1566l37.59-100.49Zm-2.52,65.57-10.21-29.31-10.21,29.31Z"/><path d="M1241,1511.71c1.62,35.37-20.57,59.35-53.28,59.35-31.52,0-53.87-22.35-53.87-53.73,0-31.22,22.2-53.72,53.28-53.72,26.78,0,47.36,15.54,52.53,39.66h-28.26c-4.59-8.73-12.43-13.17-22.79-13.17-15.54,0-26.35,11.1-26.35,27.38s10.36,27.23,26.79,27.23c10.21,0,18.06-4.14,22-12.73h-28v-20.27Z"/></g></svg>