<svg xmlns="http://www.w3.org/2000/svg" viewBox="0 0 1666.72 1875.06"><defs><style>.cls-1{fill:#120f4c;}.cls-2{fill:#120f4d;}.cls-3{fill:#120f4e;}.cls-4{fill:#130f4e;}.cls-5{fill:#130f4f;}.cls-6{fill:#13104f;}.cls-7{fill:#131050;}.cls-8{fill:#131051;}.cls-9{fill:#131052;}.cls-10{fill:#141053;}.cls-11{fill:#141054;}.cls-12{fill:#141154;}.cls-13{fill:#141155;}.cls-14{fill:#141156;}.cls-15{fill:#141157;}.cls-16{fill:#151157;}.cls-17{fill:#151158;}.cls-18{fill:#151159;}.cls-19{fill:#151259;}.cls-20{fill:#15125a;}.cls-21{fill:#15125b;}.cls-22{fill:#16125b;}.cls-23{fill:#16125c;}.cls-24{fill:#16125d;}.cls-25{fill:#16125e;}.cls-26{fill:#16135e;}.cls-27{fill:#16135f;}.cls-28{fill:#171360;}.cls-29{fill:#171361;}.cls-30{fill:#171362;}.cls-31{fill:#171363;}.cls-32{fill:#171463;}.cls-33{fill:#171464;}.cls-34{fill:#181464;}.cls-35{fill:#181465;}.cls-36{fill:#181466;}.cls-37{font-size:148px;font-family:CodeNext-ExtraBold, Code Next;font-weight:800;letter-spacing:0.1em;}.cls-38{letter-spacing:0.06em;}</style></defs><g id="Capa_7" data-name="Capa 7"><path class="cls-1" d="M1465,300.43c-16.08,23-24.76,50.13-82,131-44.48,62.89-130.12,172.27-280.06,267.42C1029,745.75,921.1,812.64,763.48,835.11,623.82,855,508.77,831,442,811.56q14.78-52.12,29.54-104.25L128.05,789.88l244.48,261.27,26.22-92.94c19.21,3.53,46.39,7.85,79.13,10.79,36.65,3.29,191,14.79,365.81-43.58,216.77-72.37,347.42-212.88,421.17-294.1C1414,467,1466.85,297.72,1465,300.43Z"/><path class="cls-1" d="M1465,300.32c-16.08,23-24.76,50.13-82,131-44.48,62.89-130.12,172.27-280.06,267.42C1029,745.64,921.1,812.52,763.48,835,623.82,854.91,508.77,830.88,442,811.45q14.78-52.12,29.54-104.25L128.05,789.77,372.53,1051l26.22-92.95c19.21,3.54,46.39,7.86,79.13,10.8,36.65,3.29,191,14.79,365.81-43.58,216.77-72.37,347.42-212.88,421.17-294.1C1414,466.89,1466.85,297.61,1465,300.32Z"/><path class="cls-1" d="M1465,300.21c-16.08,23-24.76,50.13-82,131-44.48,62.89-130.12,172.27-280.06,267.42C1029,745.53,921.1,812.41,763.48,834.89,623.82,854.8,508.77,830.77,442,811.34q14.78-52.12,29.54-104.25L128.05,789.66l244.48,261.27,26.22-93c19.21,3.53,46.39,7.86,79.13,10.8,36.65,3.29,191,14.79,365.81-43.58,216.77-72.37,347.42-212.88,421.17-294.11C1414,466.78,1466.85,297.5,1465,300.21Z"/><path class="cls-2" d="M1465,300.1c-16.08,23-24.76,50.12-82,131-44.48,62.9-130.12,172.28-280.06,267.42C1029,745.42,921.1,812.3,763.48,834.78,623.82,854.69,508.77,830.66,442,811.22Q456.74,759.11,471.5,707L128.05,789.55l244.48,261.26,26.22-92.94c19.21,3.53,46.39,7.86,79.13,10.8,36.65,3.29,191,14.79,365.81-43.58,216.77-72.37,347.42-212.88,421.17-294.11C1414,466.67,1466.85,297.39,1465,300.1Z"/><path class="cls-2" d="M1465,300c-16.08,23-24.76,50.13-82,131-44.48,62.89-130.12,172.27-280.06,267.42C1029,745.3,921.1,812.19,763.48,834.66,623.82,854.58,508.77,830.55,442,811.11Q456.74,759,471.5,706.87L128.05,789.44,372.53,1050.7l26.22-92.94c19.21,3.53,46.39,7.86,79.13,10.8,36.65,3.29,191,14.79,365.81-43.58,216.77-72.38,347.42-212.88,421.17-294.11C1414,466.56,1466.85,297.28,1465,300Z"/><path class="cls-2" d="M1465,299.87c-16.08,23-24.76,50.13-82,131-44.48,62.89-130.12,172.27-280.06,267.42C1029,745.19,921.1,812.08,763.48,834.55,623.82,854.46,508.77,830.43,442,811q14.78-52.12,29.54-104.24L128.05,789.32l244.48,261.27,26.22-92.94c19.21,3.53,46.39,7.85,79.13,10.8,36.65,3.29,191,14.79,365.81-43.59,216.77-72.37,347.42-212.88,421.17-294.1C1414,466.45,1466.85,297.17,1465,299.87Z"/><path class="cls-2" d="M1465,299.76c-16.08,23-24.76,50.13-82,131-44.48,62.89-130.12,172.27-280.06,267.42C1029,745.08,921.1,812,763.48,834.44,623.82,854.35,508.77,830.32,442,810.89q14.78-52.12,29.54-104.25L128.05,789.21l244.48,261.27,26.22-92.94c19.21,3.53,46.39,7.85,79.13,10.79,36.65,3.29,191,14.79,365.81-43.58,216.77-72.37,347.42-212.88,421.17-294.1C1414,466.33,1466.85,297.05,1465,299.76Z"/><path class="cls-2" d="M1465,299.65c-16.08,23-24.76,50.13-82,131-44.48,62.89-130.12,172.27-280.06,267.42C1029,745,921.1,811.86,763.48,834.33,623.82,854.24,508.77,830.21,442,810.78q14.78-52.12,29.54-104.25L128.05,789.1l244.48,261.27,26.22-92.95c19.21,3.54,46.39,7.86,79.13,10.8,36.65,3.29,191,14.79,365.81-43.58,216.77-72.37,347.42-212.88,421.17-294.1C1414,466.22,1466.85,296.94,1465,299.65Z"/><path class="cls-2" d="M1465,299.54c-16.08,23-24.76,50.13-82,131-44.48,62.89-130.12,172.27-280.06,267.42C1029,744.86,921.1,811.74,763.48,834.22,623.82,854.13,508.77,830.1,442,810.67q14.78-52.12,29.54-104.25L128.05,789l244.48,261.27,26.22-93c19.21,3.53,46.39,7.86,79.13,10.8,36.65,3.29,191,14.79,365.81-43.58,216.77-72.37,347.42-212.88,421.17-294.1C1414,466.11,1466.85,296.83,1465,299.54Z"/><path class="cls-3" d="M1465,299.43c-16.08,23-24.76,50.12-82,131-44.48,62.89-130.12,172.27-280.06,267.41C1029,744.75,921.1,811.63,763.48,834.11,623.82,854,508.77,830,442,810.55q14.78-52.11,29.54-104.24L128.05,788.88l244.48,261.26,26.22-92.94c19.21,3.53,46.39,7.86,79.13,10.8,36.65,3.29,191,14.79,365.81-43.58,216.77-72.37,347.42-212.88,421.17-294.11C1414,466,1466.85,296.72,1465,299.43Z"/><path class="cls-3" d="M1465,299.32c-16.08,23-24.76,50.12-82,131-44.48,62.89-130.12,172.27-280.06,267.42C1029,744.63,921.1,811.52,763.48,834,623.82,853.91,508.77,829.88,442,810.44q14.78-52.12,29.54-104.24L128.05,788.77,372.53,1050l26.22-92.94c19.21,3.53,46.39,7.86,79.13,10.8,36.65,3.29,191,14.79,365.81-43.58,216.77-72.37,347.42-212.88,421.17-294.11C1414,465.89,1466.85,296.61,1465,299.32Z"/><path class="cls-3" d="M1465,299.2c-16.08,23-24.76,50.13-82,131-44.48,62.89-130.12,172.27-280.06,267.42C1029,744.52,921.1,811.41,763.48,833.88,623.82,853.79,508.77,829.77,442,810.33q14.78-52.12,29.54-104.24L128.05,788.66Q250.3,919.28,372.53,1049.92L398.75,957c19.21,3.53,46.39,7.86,79.13,10.8,36.65,3.29,191,14.79,365.81-43.58,216.77-72.38,347.42-212.88,421.17-294.11C1414,465.78,1466.85,296.5,1465,299.2Z"/><path class="cls-3" d="M1465,299.09c-16.08,23-24.76,50.13-82,131-44.48,62.89-130.12,172.27-280.06,267.42C1029,744.41,921.1,811.3,763.48,833.77,623.82,853.68,508.77,829.65,442,810.22Q456.74,758.1,471.5,706L128.05,788.54l244.48,261.27,26.22-92.94c19.21,3.53,46.39,7.85,79.13,10.79,36.65,3.29,191,14.79,365.81-43.58,216.77-72.37,347.42-212.88,421.17-294.1C1414,465.66,1466.85,296.38,1465,299.09Z"/><path class="cls-4" d="M1465,299c-16.08,23-24.76,50.13-82,131-44.48,62.89-130.12,172.27-280.06,267.42C1029,744.3,921.1,811.19,763.48,833.66,623.82,853.57,508.77,829.54,442,810.11Q456.74,758,471.5,705.86L128.05,788.43,372.53,1049.7l26.22-93c19.21,3.54,46.39,7.86,79.13,10.8,36.65,3.29,191,14.79,365.81-43.58,216.77-72.37,347.42-212.88,421.17-294.1C1414,465.55,1466.85,296.27,1465,299Z"/><path class="cls-4" d="M1465,298.87c-16.08,23-24.76,50.13-82,131-44.48,62.89-130.12,172.27-280.06,267.42C1029,744.19,921.1,811.07,763.48,833.55,623.82,853.46,508.77,829.43,442,810q14.78-52.12,29.54-104.25L128.05,788.32l244.48,261.27,26.22-92.95c19.21,3.53,46.39,7.86,79.13,10.8,36.65,3.29,191,14.79,365.81-43.58,216.77-72.37,347.42-212.88,421.17-294.1C1414,465.44,1466.85,296.16,1465,298.87Z"/><path class="cls-5" d="M1465,298.76c-16.08,23-24.76,50.12-82,131-44.48,62.89-130.12,172.27-280.06,267.42C1029,744.08,921.1,811,763.48,833.44,623.82,853.35,508.77,829.32,442,809.88q14.78-52.11,29.54-104.24L128.05,788.21l244.48,261.26,26.22-92.94c19.21,3.53,46.39,7.86,79.13,10.8,36.65,3.29,191,14.79,365.81-43.58,216.77-72.37,347.42-212.88,421.17-294.11C1414,465.33,1466.85,296.05,1465,298.76Z"/><path class="cls-6" d="M1465,298.65c-16.08,23-24.76,50.12-82,131-44.48,62.89-130.12,172.27-280.06,267.42C1029,744,921.1,810.85,763.48,833.32,623.82,853.24,508.77,829.21,442,809.77q14.78-52.11,29.54-104.24L128.05,788.1l244.48,261.26,26.22-92.94c19.21,3.53,46.39,7.86,79.13,10.8,36.65,3.29,191,14.79,365.81-43.58,216.77-72.37,347.42-212.88,421.17-294.11C1414,465.22,1466.85,295.94,1465,298.65Z"/><path class="cls-6" d="M1465,298.53c-16.08,23-24.76,50.13-82,131-44.48,62.89-130.12,172.27-280.06,267.42C1029,743.85,921.1,810.74,763.48,833.21,623.82,853.12,508.77,829.1,442,809.66q14.78-52.12,29.54-104.24L128.05,788Q250.3,918.61,372.53,1049.25l26.22-92.94c19.21,3.53,46.39,7.86,79.13,10.8,36.65,3.29,191,14.79,365.81-43.58,216.77-72.38,347.42-212.88,421.17-294.11C1414,465.11,1466.85,295.83,1465,298.53Z"/><path class="cls-6" d="M1465,298.42c-16.08,23-24.76,50.13-82,131-44.48,62.89-130.12,172.27-280.06,267.42C1029,743.74,921.1,810.63,763.48,833.1,623.82,853,508.77,829,442,809.55q14.78-52.12,29.54-104.24L128.05,787.87l244.48,261.27,26.22-92.94c19.21,3.53,46.39,7.85,79.13,10.79,36.65,3.3,191,14.79,365.81-43.58,216.77-72.37,347.42-212.88,421.17-294.1C1414,465,1466.85,295.72,1465,298.42Z"/><path class="cls-6" d="M1465,298.31c-16.08,23-24.76,50.13-82,131-44.48,62.89-130.12,172.27-280.06,267.42C1029,743.63,921.1,810.52,763.48,833,623.82,852.9,508.77,828.87,442,809.44q14.78-52.12,29.54-104.25L128.05,787.76,372.53,1049l26.22-92.94c19.21,3.53,46.39,7.85,79.13,10.79,36.65,3.29,191,14.79,365.81-43.58,216.77-72.37,347.42-212.88,421.17-294.1C1414,464.88,1466.85,295.6,1465,298.31Z"/><path class="cls-6" d="M1465,298.2c-16.08,23-24.76,50.13-82,131-44.48,62.89-130.12,172.27-280.06,267.42C1029,743.52,921.1,810.4,763.48,832.88,623.82,852.79,508.77,828.76,442,809.33q14.78-52.12,29.54-104.25L128.05,787.65l244.48,261.27,26.22-93c19.21,3.54,46.39,7.86,79.13,10.8,36.65,3.29,191,14.79,365.81-43.58,216.77-72.37,347.42-212.88,421.17-294.1C1414,464.77,1466.85,295.49,1465,298.2Z"/><path class="cls-7" d="M1465,298.09c-16.08,23-24.76,50.13-82,131-44.48,62.89-130.12,172.27-280.06,267.42C1029,743.41,921.1,810.29,763.48,832.77,623.82,852.68,508.77,828.65,442,809.22Q456.74,757.1,471.5,705L128.05,787.54l244.48,261.27,26.22-92.95c19.21,3.53,46.39,7.86,79.13,10.8,36.65,3.29,191,14.79,365.81-43.58C1060.46,850.71,1191.11,710.2,1264.86,629,1414,464.66,1466.85,295.38,1465,298.09Z"/><path class="cls-7" d="M1465,298c-16.08,23-24.76,50.12-82,131-44.48,62.9-130.12,172.28-280.06,267.42C1029,743.3,921.1,810.18,763.48,832.65,623.82,852.57,508.77,828.54,442,809.1Q456.74,757,471.5,704.86L128.05,787.43l244.48,261.26,26.22-92.94c19.21,3.53,46.39,7.86,79.13,10.8,36.65,3.29,191,14.79,365.81-43.58,216.77-72.37,347.42-212.88,421.17-294.11C1414,464.55,1466.85,295.27,1465,298Z"/><path class="cls-7" d="M1465,297.86c-16.08,23-24.76,50.13-82,131-44.48,62.89-130.12,172.27-280.06,267.42C1029,743.18,921.1,810.07,763.48,832.54,623.82,852.46,508.77,828.43,442,809q14.78-52.12,29.54-104.24L128.05,787.32Q250.3,917.94,372.53,1048.58l26.22-92.94c19.21,3.53,46.39,7.86,79.13,10.8,36.65,3.29,191,14.79,365.81-43.58,216.77-72.38,347.42-212.88,421.17-294.11C1414,464.44,1466.85,295.16,1465,297.86Z"/><path class="cls-7" d="M1465,297.75c-16.08,23-24.76,50.13-82,131-44.48,62.89-130.12,172.27-280.06,267.42C1029,743.07,921.1,810,763.48,832.43,623.82,852.34,508.77,828.31,442,808.88q14.78-52.12,29.54-104.24L128.05,787.2l244.48,261.27,26.22-92.94c19.21,3.53,46.39,7.85,79.13,10.79,36.65,3.3,191,14.8,365.81-43.58,216.77-72.37,347.42-212.88,421.17-294.1C1414,464.32,1466.85,295.05,1465,297.75Z"/><path class="cls-7" d="M1465,297.64c-16.08,23-24.76,50.13-82,131-44.48,62.89-130.12,172.27-280.06,267.42C1029,743,921.1,809.85,763.48,832.32,623.82,852.23,508.77,828.2,442,808.77q14.78-52.12,29.54-104.25L128.05,787.09l244.48,261.27,26.22-92.94c19.21,3.53,46.39,7.85,79.13,10.79,36.65,3.29,191,14.79,365.81-43.58,216.77-72.37,347.42-212.88,421.17-294.1C1414,464.21,1466.85,294.93,1465,297.64Z"/><path class="cls-7" d="M1465,297.53c-16.08,23-24.76,50.13-82,131-44.48,62.89-130.12,172.27-280.06,267.42C1029,742.85,921.1,809.73,763.48,832.21,623.82,852.12,508.77,828.09,442,808.66q14.78-52.12,29.54-104.25L128.05,787l244.48,261.27,26.22-93c19.21,3.54,46.39,7.86,79.13,10.8,36.65,3.29,191,14.79,365.81-43.58,216.77-72.37,347.42-212.88,421.17-294.1C1414,464.1,1466.85,294.82,1465,297.53Z"/><path class="cls-8" d="M1465,297.42c-16.08,23-24.76,50.13-82,131-44.48,62.89-130.12,172.27-280.06,267.42C1029,742.74,921.1,809.62,763.48,832.1,623.82,852,508.77,828,442,808.55q14.78-52.12,29.54-104.25L128.05,786.87l244.48,261.27,26.22-93c19.21,3.53,46.39,7.86,79.13,10.8,36.65,3.29,191,14.79,365.81-43.58C1060.46,850,1191.11,709.53,1264.86,628.3,1414,464,1466.85,294.71,1465,297.42Z"/><path class="cls-8" d="M1465,297.31c-16.08,23-24.76,50.12-82,131-44.48,62.89-130.12,172.27-280.06,267.41C1029,742.63,921.1,809.51,763.48,832,623.82,851.9,508.77,827.87,442,808.43q14.78-52.11,29.54-104.24L128.05,786.76,372.53,1048l26.22-92.94c19.21,3.53,46.39,7.86,79.13,10.8,36.65,3.29,191,14.79,365.81-43.58,216.77-72.37,347.42-212.88,421.17-294.11C1414,463.88,1466.85,294.6,1465,297.31Z"/><path class="cls-8" d="M1465,297.19c-16.08,23-24.76,50.13-82,131-44.48,62.89-130.12,172.27-280.06,267.42C1029,742.51,921.1,809.4,763.48,831.87,623.82,851.79,508.77,827.76,442,808.32q14.78-52.12,29.54-104.24L128.05,786.65l244.48,261.26L398.75,955c19.21,3.53,46.39,7.86,79.13,10.8,36.65,3.29,191,14.79,365.81-43.58,216.77-72.38,347.42-212.88,421.17-294.11C1414,463.77,1466.85,294.49,1465,297.19Z"/><path class="cls-8" d="M1465,297.08c-16.08,23-24.76,50.13-82,131-44.48,62.89-130.12,172.27-280.06,267.42C1029,742.4,921.1,809.29,763.48,831.76,623.82,851.67,508.77,827.64,442,808.21Q456.74,756.09,471.5,704L128.05,786.54Q250.3,917.16,372.53,1047.8l26.22-92.94c19.21,3.53,46.39,7.86,79.13,10.8,36.65,3.29,191,14.79,365.81-43.59,216.77-72.37,347.42-212.88,421.17-294.1C1414,463.66,1466.85,294.38,1465,297.08Z"/><path class="cls-8" d="M1465,297c-16.08,23-24.76,50.13-82,131-44.48,62.89-130.12,172.27-280.06,267.42C1029,742.29,921.1,809.18,763.48,831.65,623.82,851.56,508.77,827.53,442,808.1Q456.74,756,471.5,703.85L128.05,786.42l244.48,261.27,26.22-92.94c19.21,3.53,46.39,7.85,79.13,10.79,36.65,3.29,191,14.79,365.81-43.58,216.77-72.37,347.42-212.88,421.17-294.1C1414,463.54,1466.85,294.26,1465,297Z"/><path class="cls-9" d="M1465,296.86c-16.08,23-24.76,50.13-82,131-44.48,62.89-130.12,172.27-280.06,267.42C1029,742.18,921.1,809.07,763.48,831.54,623.82,851.45,508.77,827.42,442,808q14.78-52.12,29.54-104.25L128.05,786.31l244.48,261.27,26.22-92.95c19.21,3.54,46.39,7.86,79.13,10.8,36.65,3.29,191,14.79,365.81-43.58,216.77-72.37,347.42-212.88,421.17-294.1C1414,463.43,1466.85,294.15,1465,296.86Z"/><path class="cls-9" d="M1465,296.75c-16.08,23-24.76,50.13-82,131-44.48,62.89-130.12,172.27-280.06,267.42C1029,742.07,921.1,809,763.48,831.43,623.82,851.34,508.77,827.31,442,807.88q14.78-52.12,29.54-104.25L128.05,786.2l244.48,261.27,26.22-93c19.21,3.53,46.39,7.86,79.13,10.8,36.65,3.29,191,14.79,365.81-43.58,216.77-72.37,347.42-212.88,421.17-294.1C1414,463.32,1466.85,294,1465,296.75Z"/><path class="cls-9" d="M1465,296.64c-16.08,23-24.76,50.12-82,131-44.48,62.89-130.12,172.27-280.06,267.41C1029,742,921.1,808.84,763.48,831.32,623.82,851.23,508.77,827.2,442,807.76q14.78-52.11,29.54-104.24L128.05,786.09l244.48,261.26,26.22-92.94c19.21,3.53,46.39,7.86,79.13,10.8,36.65,3.29,191,14.79,365.81-43.58,216.77-72.37,347.42-212.88,421.17-294.11C1414,463.21,1466.85,293.93,1465,296.64Z"/><path class="cls-9" d="M1465,296.53c-16.08,23-24.76,50.12-82,131-44.48,62.89-130.12,172.27-280.06,267.42C1029,741.84,921.1,808.73,763.48,831.2,623.82,851.12,508.77,827.09,442,807.65q14.78-52.12,29.54-104.24L128.05,786l244.48,261.26,26.22-92.94c19.21,3.53,46.39,7.86,79.13,10.8,36.65,3.29,191,14.79,365.81-43.58,216.77-72.37,347.42-212.88,421.17-294.11C1414,463.1,1466.85,293.82,1465,296.53Z"/><path class="cls-9" d="M1465,296.41c-16.08,23-24.76,50.13-82,131-44.48,62.89-130.12,172.27-280.06,267.42C1029,741.73,921.1,808.62,763.48,831.09,623.82,851,508.77,827,442,807.54q14.78-52.12,29.54-104.24L128.05,785.87Q250.3,916.49,372.53,1047.13l26.22-92.94c19.21,3.53,46.39,7.86,79.13,10.8,36.65,3.29,191,14.79,365.81-43.58C1060.46,849,1191.11,708.53,1264.86,627.3,1414,463,1466.85,293.71,1465,296.41Z"/><path class="cls-9" d="M1465,296.3c-16.08,23-24.76,50.13-82,131-44.48,62.89-130.12,172.27-280.06,267.42C1029,741.62,921.1,808.51,763.48,831,623.82,850.89,508.77,826.86,442,807.43q14.78-52.12,29.54-104.24L128.05,785.75,372.53,1047l26.22-92.94c19.21,3.53,46.39,7.85,79.13,10.79,36.65,3.29,191,14.79,365.81-43.58,216.77-72.37,347.42-212.88,421.17-294.1C1414,462.87,1466.85,293.59,1465,296.3Z"/><path class="cls-10" d="M1465,296.19c-16.08,23-24.76,50.13-82,131-44.48,62.89-130.12,172.27-280.06,267.42C1029,741.51,921.1,808.4,763.48,830.87,623.82,850.78,508.77,826.75,442,807.32q14.78-52.12,29.54-104.25L128.05,785.64l244.48,261.27,26.22-93c19.21,3.54,46.39,7.86,79.13,10.8,36.65,3.29,191,14.79,365.81-43.58,216.77-72.37,347.42-212.88,421.17-294.1C1414,462.76,1466.85,293.48,1465,296.19Z"/><path class="cls-10" d="M1465,296.08c-16.08,23-24.76,50.13-82,131-44.48,62.89-130.12,172.27-280.06,267.42C1029,741.4,921.1,808.28,763.48,830.76,623.82,850.67,508.77,826.64,442,807.21Q456.74,755.09,471.5,703L128.05,785.53,372.53,1046.8l26.22-92.95c19.21,3.53,46.39,7.86,79.13,10.8,36.65,3.29,191,14.79,365.81-43.58,216.77-72.37,347.42-212.88,421.17-294.1C1414,462.65,1466.85,293.37,1465,296.08Z"/><path class="cls-10" d="M1465,296c-16.08,23-24.76,50.12-82,131-44.48,62.89-130.12,172.27-280.06,267.42C1029,741.29,921.1,808.17,763.48,830.65,623.82,850.56,508.77,826.53,442,807.09Q456.74,755,471.5,702.85L128.05,785.42l244.48,261.27,26.22-93c19.21,3.53,46.39,7.86,79.13,10.8,36.65,3.29,191,14.79,365.81-43.58,216.77-72.37,347.42-212.88,421.17-294.11C1414,462.54,1466.85,293.26,1465,296Z"/><path class="cls-10" d="M1465,295.86c-16.08,23-24.76,50.12-82,131-44.48,62.89-130.12,172.27-280.06,267.42C1029,741.18,921.1,808.06,763.48,830.53,623.82,850.45,508.77,826.42,442,807q14.78-52.11,29.54-104.24L128.05,785.31l244.48,261.26,26.22-92.94c19.21,3.53,46.39,7.86,79.13,10.8,36.65,3.29,191,14.79,365.81-43.58,216.77-72.37,347.42-212.88,421.17-294.11C1414,462.43,1466.85,293.15,1465,295.86Z"/><path class="cls-10" d="M1465,295.74c-16.08,23-24.76,50.13-82,131-44.48,62.89-130.12,172.27-280.06,267.42C1029,741.06,921.1,808,763.48,830.42,623.82,850.33,508.77,826.31,442,806.87q14.78-52.12,29.54-104.24L128.05,785.2Q250.3,915.82,372.53,1046.46l26.22-92.94c19.21,3.53,46.39,7.86,79.13,10.8,36.65,3.29,191,14.79,365.81-43.58,216.77-72.38,347.42-212.88,421.17-294.11C1414,462.32,1466.85,293,1465,295.74Z"/><path class="cls-10" d="M1465,295.63c-16.08,23-24.76,50.13-82,131C1338.51,489.5,1252.87,598.88,1102.93,694,1029,741,921.1,807.84,763.48,830.31,623.82,850.22,508.77,826.19,442,806.76q14.78-52.12,29.54-104.24L128.05,785.08l244.48,261.27,26.22-92.94c19.21,3.53,46.39,7.85,79.13,10.79,36.65,3.3,191,14.79,365.81-43.58,216.77-72.37,347.42-212.88,421.17-294.1C1414,462.2,1466.85,292.93,1465,295.63Z"/><path class="cls-11" d="M1465,295.52c-16.08,23-24.76,50.13-82,131-44.48,62.89-130.12,172.27-280.06,267.42C1029,740.84,921.1,807.73,763.48,830.2,623.82,850.11,508.77,826.08,442,806.65q14.78-52.12,29.54-104.25L128.05,785l244.48,261.27,26.22-92.94c19.21,3.53,46.39,7.85,79.13,10.79,36.65,3.29,191,14.79,365.81-43.58,216.77-72.37,347.42-212.88,421.17-294.1C1414,462.09,1466.85,292.81,1465,295.52Z"/><path class="cls-11" d="M1465,295.41c-16.08,23-24.76,50.13-82,131-44.48,62.89-130.12,172.27-280.06,267.42C1029,740.73,921.1,807.61,763.48,830.09,623.82,850,508.77,826,442,806.54q14.78-52.12,29.54-104.25L128.05,784.86l244.48,261.27,26.22-93C418,956.72,445.14,961,477.88,964c36.65,3.29,191,14.79,365.81-43.58,216.77-72.37,347.42-212.88,421.17-294.1C1414,462,1466.85,292.7,1465,295.41Z"/><path class="cls-12" d="M1465,295.3c-16.08,23-24.76,50.13-82,131-44.48,62.89-130.12,172.27-280.06,267.42C1029,740.62,921.1,807.5,763.48,830,623.82,849.89,508.77,825.86,442,806.43q14.78-52.12,29.54-104.25L128.05,784.75,372.53,1046l26.22-92.95c19.21,3.53,46.39,7.86,79.13,10.8,36.65,3.29,191,14.79,365.81-43.58,216.77-72.37,347.42-212.88,421.17-294.11C1414,461.87,1466.85,292.59,1465,295.3Z"/><path class="cls-12" d="M1465,295.19c-16.08,23-24.76,50.12-82,131-44.48,62.9-130.12,172.28-280.06,267.42C1029,740.51,921.1,807.39,763.48,829.86,623.82,849.78,508.77,825.75,442,806.31q14.78-52.11,29.54-104.24L128.05,784.64,372.53,1045.9,398.75,953c19.21,3.53,46.39,7.86,79.13,10.8,36.65,3.29,191,14.79,365.81-43.58,216.77-72.37,347.42-212.88,421.17-294.11C1414,461.76,1466.85,292.48,1465,295.19Z"/><path class="cls-12" d="M1465,295.07c-16.08,23-24.76,50.13-82,131-44.48,62.89-130.12,172.27-280.06,267.42C1029,740.39,921.1,807.28,763.48,829.75,623.82,849.67,508.77,825.64,442,806.2Q456.74,754.08,471.5,702L128.05,784.53Q250.3,915.15,372.53,1045.79l26.22-92.94c19.21,3.53,46.39,7.86,79.13,10.8,36.65,3.29,191,14.79,365.81-43.58,216.77-72.38,347.42-212.88,421.17-294.11C1414,461.65,1466.85,292.37,1465,295.07Z"/><path class="cls-12" d="M1465,295c-16.08,23-24.76,50.13-82,131-44.48,62.89-130.12,172.27-280.06,267.42C1029,740.28,921.1,807.17,763.48,829.64,623.82,849.55,508.77,825.52,442,806.09Q456.74,754,471.5,701.85L128.05,784.41l244.48,261.27,26.22-92.94c19.21,3.53,46.39,7.85,79.13,10.79,36.65,3.3,191,14.8,365.81-43.58,216.77-72.37,347.42-212.88,421.17-294.1C1414,461.53,1466.85,292.26,1465,295Z"/><path class="cls-13" d="M1465,294.85c-16.08,23-24.76,50.13-82,131-44.48,62.89-130.12,172.27-280.06,267.42C1029,740.17,921.1,807.06,763.48,829.53,623.82,849.44,508.77,825.41,442,806q14.78-52.12,29.54-104.25L128.05,784.3l244.48,261.27,26.22-92.94c19.21,3.53,46.39,7.85,79.13,10.79,36.65,3.29,191,14.79,365.81-43.58,216.77-72.37,347.42-212.88,421.17-294.1C1414,461.42,1466.85,292.14,1465,294.85Z"/><path class="cls-13" d="M1465,294.74c-16.08,23-24.76,50.13-82,131-44.48,62.89-130.12,172.27-280.06,267.42C1029,740.06,921.1,806.94,763.48,829.42,623.82,849.33,508.77,825.3,442,805.87q14.78-52.12,29.54-104.25L128.05,784.19l244.48,261.27,26.22-93c19.21,3.54,46.39,7.86,79.13,10.8,36.65,3.29,191,14.79,365.81-43.58,216.77-72.37,347.42-212.88,421.17-294.1C1414,461.31,1466.85,292,1465,294.74Z"/><path class="cls-13" d="M1465,294.63c-16.08,23-24.76,50.13-82,131C1338.51,488.5,1252.87,597.88,1102.93,693,1029,740,921.1,806.83,763.48,829.31,623.82,849.22,508.77,825.19,442,805.76q14.78-52.12,29.54-104.25L128.05,784.08l244.48,261.27,26.22-92.95c19.21,3.53,46.39,7.86,79.13,10.8,36.65,3.29,191,14.79,365.81-43.58,216.77-72.37,347.42-212.88,421.17-294.1C1414,461.2,1466.85,291.92,1465,294.63Z"/><path class="cls-13" d="M1465,294.52c-16.08,23-24.76,50.12-82,131-44.48,62.89-130.12,172.27-280.06,267.41C1029,739.84,921.1,806.72,763.48,829.2,623.82,849.11,508.77,825.08,442,805.64q14.78-52.11,29.54-104.24L128.05,784l244.48,261.26,26.22-92.94c19.21,3.53,46.39,7.86,79.13,10.8,36.65,3.29,191,14.79,365.81-43.58,216.77-72.37,347.42-212.88,421.17-294.11C1414,461.09,1466.85,291.81,1465,294.52Z"/><path class="cls-13" d="M1465,294.4c-16.08,23-24.76,50.13-82,131-44.48,62.89-130.12,172.27-280.06,267.42C1029,739.72,921.1,806.61,763.48,829.08,623.82,849,508.77,825,442,805.53q14.78-52.12,29.54-104.24L128.05,783.86l244.48,261.26,26.22-92.94C418,955.71,445.14,960,477.88,963c36.65,3.29,191,14.79,365.81-43.58,216.77-72.38,347.42-212.88,421.17-294.11C1414,461,1466.85,291.7,1465,294.4Z"/><path class="cls-13" d="M1465,294.29c-16.08,23-24.76,50.13-82,131-44.48,62.89-130.12,172.27-280.06,267.42C1029,739.61,921.1,806.5,763.48,829,623.82,848.88,508.77,824.85,442,805.42q14.78-52.12,29.54-104.24L128.05,783.75Q250.3,914.37,372.53,1045l26.22-92.94c19.21,3.53,46.39,7.86,79.13,10.8,36.65,3.29,191,14.79,365.81-43.58,216.77-72.38,347.42-212.88,421.17-294.11C1414,460.87,1466.85,291.59,1465,294.29Z"/><path class="cls-14" d="M1465,294.18c-16.08,23-24.76,50.13-82,131-44.48,62.89-130.12,172.27-280.06,267.42C1029,739.5,921.1,806.39,763.48,828.86,623.82,848.77,508.77,824.74,442,805.31q14.78-52.12,29.54-104.25L128.05,783.63,372.53,1044.9,398.75,952c19.21,3.53,46.39,7.85,79.13,10.79,36.65,3.29,191,14.79,365.81-43.58,216.77-72.37,347.42-212.88,421.17-294.1C1414,460.75,1466.85,291.47,1465,294.18Z"/><path class="cls-14" d="M1465,294.07c-16.08,23-24.76,50.13-82,131-44.48,62.89-130.12,172.27-280.06,267.42C1029,739.39,921.1,806.28,763.48,828.75,623.82,848.66,508.77,824.63,442,805.2Q456.74,753.08,471.5,701L128.05,783.52l244.48,261.27,26.22-92.95c19.21,3.54,46.39,7.86,79.13,10.8,36.65,3.29,191,14.79,365.81-43.58,216.77-72.37,347.42-212.88,421.17-294.1C1414,460.64,1466.85,291.36,1465,294.07Z"/><path class="cls-14" d="M1465,294c-16.08,23-24.76,50.13-82,131-44.48,62.89-130.12,172.27-280.06,267.42C1029,739.28,921.1,806.16,763.48,828.64,623.82,848.55,508.77,824.52,442,805.09Q456.74,753,471.5,700.84L128.05,783.41l244.48,261.27,26.22-93c19.21,3.53,46.39,7.86,79.13,10.8,36.65,3.29,191,14.79,365.81-43.58,216.77-72.37,347.42-212.88,421.17-294.1C1414,460.53,1466.85,291.25,1465,294Z"/><path class="cls-14" d="M1465,293.85c-16.08,23-24.76,50.12-82,131-44.48,62.89-130.12,172.27-280.06,267.42C1029,739.17,921.1,806.05,763.48,828.53,623.82,848.44,508.77,824.41,442,805q14.78-52.11,29.54-104.24L128.05,783.3l244.48,261.26,26.22-92.94c19.21,3.53,46.39,7.86,79.13,10.8,36.65,3.29,191,14.79,365.81-43.58,216.77-72.37,347.42-212.88,421.17-294.11C1414,460.42,1466.85,291.14,1465,293.85Z"/><path class="cls-14" d="M1465,293.74c-16.08,23-24.76,50.12-82,131C1338.51,487.6,1252.87,597,1102.93,692.13,1029,739.05,921.1,805.94,763.48,828.41,623.82,848.33,508.77,824.3,442,804.86q14.78-52.12,29.54-104.24L128.05,783.19l244.48,261.26,26.22-92.94c19.21,3.53,46.39,7.86,79.13,10.8,36.65,3.29,191,14.79,365.81-43.58,216.77-72.37,347.42-212.88,421.17-294.11C1414,460.31,1466.85,291,1465,293.74Z"/><path class="cls-15" d="M1465,293.62c-16.08,23-24.76,50.13-82,131-44.48,62.89-130.12,172.27-280.06,267.42C1029,738.94,921.1,805.83,763.48,828.3,623.82,848.21,508.77,824.19,442,804.75q14.78-52.12,29.54-104.24L128.05,783.08Q250.3,913.7,372.53,1044.34l26.22-92.94c19.21,3.53,46.39,7.86,79.13,10.8,36.65,3.29,191,14.79,365.81-43.58,216.77-72.38,347.42-212.88,421.17-294.11C1414,460.2,1466.85,290.92,1465,293.62Z"/><path class="cls-15" d="M1465,293.51c-16.08,23-24.76,50.13-82,131-44.48,62.89-130.12,172.27-280.06,267.42C1029,738.83,921.1,805.72,763.48,828.19,623.82,848.1,508.77,824.07,442,804.64q14.78-52.12,29.54-104.24L128.05,783l244.48,261.27,26.22-92.94c19.21,3.53,46.39,7.85,79.13,10.79,36.65,3.3,191,14.79,365.81-43.58,216.77-72.37,347.42-212.88,421.17-294.1C1414,460.08,1466.85,290.81,1465,293.51Z"/><path class="cls-16" d="M1465,293.4c-16.08,23-24.76,50.13-82,131-44.48,62.89-130.12,172.27-280.06,267.42C1029,738.72,921.1,805.61,763.48,828.08,623.82,848,508.77,824,442,804.53q14.78-52.12,29.54-104.25L128.05,782.85l244.48,261.27,26.22-92.94C418,954.71,445.14,959,477.88,962c36.65,3.29,191,14.79,365.81-43.58,216.77-72.37,347.42-212.88,421.17-294.1C1414,460,1466.85,290.69,1465,293.4Z"/><path class="cls-16" d="M1465,293.29c-16.08,23-24.76,50.13-82,131-44.48,62.89-130.12,172.27-280.06,267.42C1029,738.61,921.1,805.49,763.48,828,623.82,847.88,508.77,823.85,442,804.42q14.78-52.12,29.54-104.25L128.05,782.74,372.53,1044l26.22-93c19.21,3.54,46.39,7.86,79.13,10.8,36.65,3.29,191,14.79,365.81-43.58,216.77-72.37,347.42-212.88,421.17-294.1C1414,459.86,1466.85,290.58,1465,293.29Z"/><path class="cls-16" d="M1465,293.18c-16.08,23-24.76,50.12-82,131-44.48,62.89-130.12,172.27-280.06,267.42C1029,738.5,921.1,805.38,763.48,827.86,623.82,847.77,508.77,823.74,442,804.3q14.78-52.11,29.54-104.24L128.05,782.63,372.53,1043.9l26.22-93c19.21,3.53,46.39,7.86,79.13,10.8,36.65,3.29,191,14.79,365.81-43.58,216.77-72.37,347.42-212.88,421.17-294.11C1414,459.75,1466.85,290.47,1465,293.18Z"/><path class="cls-16" d="M1465,293.07c-16.08,23-24.76,50.12-82,131-44.48,62.89-130.12,172.28-280.06,267.42C1029,738.39,921.1,805.27,763.48,827.74,623.82,847.66,508.77,823.63,442,804.19Q456.74,752.08,471.5,700L128.05,782.52l244.48,261.26,26.22-92.94c19.21,3.53,46.39,7.86,79.13,10.8,36.65,3.29,191,14.79,365.81-43.58,216.77-72.37,347.42-212.88,421.17-294.11C1414,459.64,1466.85,290.36,1465,293.07Z"/><path class="cls-17" d="M1465,293c-16.08,23-24.76,50.13-82,131-44.48,62.89-130.12,172.27-280.06,267.42C1029,738.27,921.1,805.16,763.48,827.63,623.82,847.55,508.77,823.52,442,804.08Q456.74,752,471.5,699.84L128.05,782.41Q250.3,913,372.53,1043.67l26.22-92.94c19.21,3.53,46.39,7.86,79.13,10.8,36.65,3.29,191,14.79,365.81-43.58,216.77-72.38,347.42-212.88,421.17-294.11C1414,459.53,1466.85,290.25,1465,293Z"/><path class="cls-17" d="M1465,292.84c-16.08,23-24.76,50.13-82,131-44.48,62.89-130.12,172.27-280.06,267.42C1029,738.16,921.1,805.05,763.48,827.52,623.82,847.43,508.77,823.4,442,804q14.78-52.12,29.54-104.24L128.05,782.29l244.48,261.27,26.22-92.94c19.21,3.53,46.39,7.85,79.13,10.79,36.65,3.3,191,14.8,365.81-43.58,216.77-72.37,347.42-212.88,421.17-294.1C1414,459.41,1466.85,290.14,1465,292.84Z"/><path class="cls-17" d="M1465,292.73c-16.08,23-24.76,50.13-82,131C1338.51,486.6,1252.87,596,1102.93,691.13,1029,738.05,921.1,804.94,763.48,827.41,623.82,847.32,508.77,823.29,442,803.86q14.78-52.12,29.54-104.25L128.05,782.18l244.48,261.27,26.22-92.94c19.21,3.53,46.39,7.85,79.13,10.79,36.65,3.29,191,14.79,365.81-43.58,216.77-72.37,347.42-212.88,421.17-294.1C1414,459.3,1466.85,290,1465,292.73Z"/><path class="cls-17" d="M1465,292.62c-16.08,23-24.76,50.13-82,131-44.48,62.89-130.12,172.27-280.06,267.42C1029,737.94,921.1,804.82,763.48,827.3,623.82,847.21,508.77,823.18,442,803.75q14.78-52.12,29.54-104.25L128.05,782.07l244.48,261.27,26.22-92.95c19.21,3.54,46.39,7.86,79.13,10.8,36.65,3.29,191,14.79,365.81-43.58,216.77-72.37,347.42-212.88,421.17-294.1C1414,459.19,1466.85,289.91,1465,292.62Z"/><path class="cls-17" d="M1465,292.51c-16.08,23-24.76,50.13-82,131-44.48,62.89-130.12,172.27-280.06,267.42C1029,737.83,921.1,804.71,763.48,827.19,623.82,847.1,508.77,823.07,442,803.64q14.78-52.12,29.54-104.25L128.05,782l244.48,261.27,26.22-93c19.21,3.53,46.39,7.86,79.13,10.8,36.65,3.29,191,14.79,365.81-43.58,216.77-72.37,347.42-212.88,421.17-294.11C1414,459.08,1466.85,289.8,1465,292.51Z"/><path class="cls-17" d="M1465,292.4c-16.08,23-24.76,50.12-82,131-44.48,62.9-130.12,172.28-280.06,267.42C1029,737.72,921.1,804.6,763.48,827.07,623.82,847,508.77,823,442,803.52q14.78-52.11,29.54-104.24L128.05,781.85l244.48,261.26,26.22-92.94C418,953.7,445.14,958,477.88,961c36.65,3.29,191,14.79,365.81-43.58,216.77-72.37,347.42-212.88,421.17-294.11C1414,459,1466.85,289.69,1465,292.4Z"/><path class="cls-18" d="M1465,292.28c-16.08,23-24.76,50.13-82,131-44.48,62.89-130.12,172.27-280.06,267.42C1029,737.6,921.1,804.49,763.48,827,623.82,846.88,508.77,822.85,442,803.41q14.78-52.12,29.54-104.24L128.05,781.74,372.53,1043l26.22-92.94c19.21,3.53,46.39,7.86,79.13,10.8,36.65,3.29,191,14.79,365.81-43.58,216.77-72.38,347.42-212.88,421.17-294.11C1414,458.86,1466.85,289.58,1465,292.28Z"/><path class="cls-18" d="M1465,292.17c-16.08,23-24.76,50.13-82,131-44.48,62.89-130.12,172.27-280.06,267.42C1029,737.49,921.1,804.38,763.48,826.85,623.82,846.76,508.77,822.73,442,803.3q14.78-52.12,29.54-104.24L128.05,781.62l244.48,261.27L398.75,950c19.21,3.53,46.39,7.85,79.13,10.79,36.65,3.3,191,14.8,365.81-43.58,216.77-72.37,347.42-212.88,421.17-294.1C1414,458.74,1466.85,289.47,1465,292.17Z"/><path class="cls-18" d="M1465,292.06c-16.08,23-24.76,50.13-82,131-44.48,62.89-130.12,172.27-280.06,267.42C1029,737.38,921.1,804.27,763.48,826.74,623.82,846.65,508.77,822.62,442,803.19q14.78-52.12,29.54-104.25L128.05,781.51l244.48,261.27,26.22-92.94c19.21,3.53,46.39,7.85,79.13,10.79,36.65,3.29,191,14.79,365.81-43.58,216.77-72.37,347.42-212.88,421.17-294.1C1414,458.63,1466.85,289.35,1465,292.06Z"/><path class="cls-19" d="M1465,292c-16.08,23-24.76,50.13-82,131-44.48,62.89-130.12,172.27-280.06,267.42C1029,737.27,921.1,804.15,763.48,826.63,623.82,846.54,508.77,822.51,442,803.08Q456.74,751,471.5,698.83L128.05,781.4l244.48,261.27,26.22-93c19.21,3.54,46.39,7.86,79.13,10.8,36.65,3.29,191,14.79,365.81-43.58,216.77-72.37,347.42-212.88,421.17-294.1C1414,458.52,1466.85,289.24,1465,292Z"/><path class="cls-19" d="M1465,291.84c-16.08,23-24.76,50.13-82,131-44.48,62.89-130.12,172.27-280.06,267.42C1029,737.16,921.1,804,763.48,826.52,623.82,846.43,508.77,822.4,442,803q14.78-52.12,29.54-104.25L128.05,781.29l244.48,261.27,26.22-92.95c19.21,3.53,46.39,7.86,79.13,10.8,36.65,3.29,191,14.79,365.81-43.58,216.77-72.37,347.42-212.88,421.17-294.1C1414,458.41,1466.85,289.13,1465,291.84Z"/><path class="cls-19" d="M1465,291.73c-16.08,23-24.76,50.12-82,131C1338.51,485.6,1252.87,595,1102.93,690.12,1029,737.05,921.1,803.93,763.48,826.41,623.82,846.32,508.77,822.29,442,802.85q14.78-52.11,29.54-104.24L128.05,781.18l244.48,261.26,26.22-92.94c19.21,3.53,46.39,7.86,79.13,10.8,36.65,3.29,191,14.79,365.81-43.58,216.77-72.37,347.42-212.88,421.17-294.11C1414,458.3,1466.85,289,1465,291.73Z"/><path class="cls-20" d="M1465,291.61c-16.08,23-24.76,50.13-82,131-44.48,62.89-130.12,172.27-280.06,267.42C1029,736.93,921.1,803.82,763.48,826.29,623.82,846.21,508.77,822.18,442,802.74q14.78-52.12,29.54-104.24L128.05,781.07l244.48,261.26,26.22-92.94c19.21,3.53,46.39,7.86,79.13,10.8,36.65,3.29,191,14.79,365.81-43.58,216.77-72.38,347.42-212.88,421.17-294.11C1414,458.19,1466.85,288.91,1465,291.61Z"/><path class="cls-20" d="M1465,291.5c-16.08,23-24.76,50.13-82,131-44.48,62.89-130.12,172.27-280.06,267.42C1029,736.82,921.1,803.71,763.48,826.18,623.82,846.09,508.77,822.06,442,802.63q14.78-52.12,29.54-104.24L128.05,781Q250.3,911.58,372.53,1042.22l26.22-92.94c19.21,3.53,46.39,7.86,79.13,10.8,36.65,3.29,191,14.79,365.81-43.58,216.77-72.38,347.42-212.88,421.17-294.11C1414,458.08,1466.85,288.8,1465,291.5Z"/><path class="cls-20" d="M1465,291.39c-16.08,23-24.76,50.13-82,131-44.48,62.89-130.12,172.27-280.06,267.42C1029,736.71,921.1,803.6,763.48,826.07,623.82,846,508.77,822,442,802.52q14.78-52.12,29.54-104.25L128.05,780.84l244.48,261.27,26.22-92.94C418,952.7,445.14,957,477.88,960c36.65,3.29,191,14.79,365.81-43.58,216.77-72.37,347.42-212.88,421.17-294.1C1414,458,1466.85,288.68,1465,291.39Z"/><path class="cls-20" d="M1465,291.28c-16.08,23-24.76,50.13-82,131-44.48,62.89-130.12,172.27-280.06,267.42C1029,736.6,921.1,803.49,763.48,826,623.82,845.87,508.77,821.84,442,802.41q14.78-52.12,29.54-104.25L128.05,780.73,372.53,1042l26.22-93c19.21,3.54,46.39,7.86,79.13,10.8,36.65,3.29,191,14.79,365.81-43.58,216.77-72.37,347.42-212.88,421.17-294.1C1414,457.85,1466.85,288.57,1465,291.28Z"/><path class="cls-20" d="M1465,291.17c-16.08,23-24.76,50.13-82,131-44.48,62.89-130.12,172.27-280.06,267.42C1029,736.49,921.1,803.37,763.48,825.85,623.82,845.76,508.77,821.73,442,802.3q14.78-52.12,29.54-104.25L128.05,780.62l244.48,261.27,26.22-93c19.21,3.53,46.39,7.86,79.13,10.8,36.65,3.29,191,14.79,365.81-43.58,216.77-72.37,347.42-212.88,421.17-294.1C1414,457.74,1466.85,288.46,1465,291.17Z"/><path class="cls-20" d="M1465,291.06c-16.08,23-24.76,50.12-82,131-44.48,62.89-130.12,172.27-280.06,267.42C1029,736.38,921.1,803.26,763.48,825.74,623.82,845.65,508.77,821.62,442,802.18q14.78-52.11,29.54-104.24L128.05,780.51l244.48,261.26,26.22-92.94c19.21,3.53,46.39,7.86,79.13,10.8,36.65,3.29,191,14.79,365.81-43.58,216.77-72.37,347.42-212.88,421.17-294.11C1414,457.63,1466.85,288.35,1465,291.06Z"/><path class="cls-21" d="M1465,291c-16.08,23-24.76,50.12-82,131-44.48,62.89-130.12,172.27-280.06,267.42C1029,736.26,921.1,803.15,763.48,825.62,623.82,845.54,508.77,821.51,442,802.07q14.78-52.12,29.54-104.24L128.05,780.4l244.48,261.26,26.22-92.94c19.21,3.53,46.39,7.86,79.13,10.8,36.65,3.29,191,14.79,365.81-43.58,216.77-72.37,347.42-212.88,421.17-294.11C1414,457.52,1466.85,288.24,1465,291Z"/><path class="cls-21" d="M1465,290.83c-16.08,23-24.76,50.13-82,131-44.48,62.89-130.12,172.27-280.06,267.42C1029,736.15,921.1,803,763.48,825.51,623.82,845.42,508.77,821.4,442,802q14.78-52.12,29.54-104.24L128.05,780.29Q250.3,910.91,372.53,1041.55l26.22-92.94c19.21,3.53,46.39,7.86,79.13,10.8,36.65,3.29,191,14.79,365.81-43.58,216.77-72.38,347.42-212.88,421.17-294.11C1414,457.41,1466.85,288.13,1465,290.83Z"/><path class="cls-21" d="M1465,290.72c-16.08,23-24.76,50.13-82,131-44.48,62.89-130.12,172.27-280.06,267.42C1029,736,921.1,802.93,763.48,825.4,623.82,845.31,508.77,821.28,442,801.85q14.78-52.12,29.54-104.24L128.05,780.17l244.48,261.27,26.22-92.94c19.21,3.53,46.39,7.85,79.13,10.79,36.65,3.3,191,14.79,365.81-43.58,216.77-72.37,347.42-212.88,421.17-294.1C1414,457.29,1466.85,288,1465,290.72Z"/><path class="cls-21" d="M1465,290.61c-16.08,23-24.76,50.13-82,131-44.48,62.89-130.12,172.27-280.06,267.42C1029,735.93,921.1,802.82,763.48,825.29,623.82,845.2,508.77,821.17,442,801.74q14.78-52.12,29.54-104.25L128.05,780.06l244.48,261.27,26.22-92.94c19.21,3.53,46.39,7.85,79.13,10.79,36.65,3.29,191,14.79,365.81-43.58,216.77-72.37,347.42-212.88,421.17-294.1C1414,457.18,1466.85,287.9,1465,290.61Z"/><path class="cls-22" d="M1465,290.5c-16.08,23-24.76,50.13-82,131-44.48,62.89-130.12,172.27-280.06,267.42C1029,735.82,921.1,802.7,763.48,825.18,623.82,845.09,508.77,821.06,442,801.63q14.78-52.12,29.54-104.25L128.05,780l244.48,261.27,26.22-93c19.21,3.54,46.39,7.86,79.13,10.8,36.65,3.29,191,14.79,365.81-43.58,216.77-72.37,347.42-212.88,421.17-294.1C1414,457.07,1466.85,287.79,1465,290.5Z"/><path class="cls-22" d="M1465,290.39c-16.08,23-24.76,50.13-82,131-44.48,62.89-130.12,172.27-280.06,267.42C1029,735.71,921.1,802.59,763.48,825.07,623.82,845,508.77,821,442,801.51q14.78-52.11,29.54-104.24L128.05,779.84l244.48,261.27,26.22-92.95C418,951.69,445.14,956,477.88,959c36.65,3.29,191,14.79,365.81-43.58C1060.46,843,1191.11,702.5,1264.86,621.27,1414,457,1466.85,287.68,1465,290.39Z"/><path class="cls-23" d="M1465,290.28c-16.08,23-24.76,50.12-82,131-44.48,62.9-130.12,172.28-280.06,267.42C1029,735.6,921.1,802.48,763.48,825,623.82,844.87,508.77,820.84,442,801.4q14.78-52.11,29.54-104.24L128.05,779.73,372.53,1041l26.22-92.94c19.21,3.53,46.39,7.86,79.13,10.8,36.65,3.29,191,14.79,365.81-43.58,216.77-72.37,347.42-212.88,421.17-294.11C1414,456.85,1466.85,287.57,1465,290.28Z"/><path class="cls-23" d="M1465,290.16c-16.08,23-24.76,50.13-82,131-44.48,62.89-130.12,172.27-280.06,267.42C1029,735.48,921.1,802.37,763.48,824.84,623.82,844.76,508.77,820.73,442,801.29q14.78-52.12,29.54-104.24L128.05,779.62Q250.3,910.24,372.53,1040.88l26.22-92.94c19.21,3.53,46.39,7.86,79.13,10.8,36.65,3.29,191,14.79,365.81-43.58,216.77-72.38,347.42-212.88,421.17-294.11C1414,456.74,1466.85,287.46,1465,290.16Z"/><path class="cls-23" d="M1465,290.05c-16.08,23-24.76,50.13-82,131-44.48,62.89-130.12,172.27-280.06,267.42C1029,735.37,921.1,802.26,763.48,824.73,623.82,844.64,508.77,820.61,442,801.18q14.78-52.12,29.54-104.24L128.05,779.5l244.48,261.27,26.22-92.94c19.21,3.53,46.39,7.85,79.13,10.79,36.65,3.3,191,14.8,365.81-43.58,216.77-72.37,347.42-212.88,421.17-294.1C1414,456.62,1466.85,287.35,1465,290.05Z"/><path class="cls-23" d="M1465,289.94c-16.08,23-24.76,50.13-82,131-44.48,62.89-130.12,172.27-280.06,267.42C1029,735.26,921.1,802.15,763.48,824.62,623.82,844.53,508.77,820.5,442,801.07q14.78-52.12,29.54-104.25L128.05,779.39l244.48,261.27,26.22-92.94c19.21,3.53,46.39,7.85,79.13,10.79,36.65,3.29,191,14.79,365.81-43.58,216.77-72.37,347.42-212.88,421.17-294.1C1414,456.51,1466.85,287.23,1465,289.94Z"/><path class="cls-23" d="M1465,289.83c-16.08,23-24.76,50.13-82,131-44.48,62.89-130.12,172.27-280.06,267.42C1029,735.15,921.1,802,763.48,824.51,623.82,844.42,508.77,820.39,442,801q14.78-52.12,29.54-104.25L128.05,779.28l244.48,261.27,26.22-92.95c19.21,3.54,46.39,7.86,79.13,10.8,36.65,3.29,191,14.79,365.81-43.58,216.77-72.37,347.42-212.88,421.17-294.1C1414,456.4,1466.85,287.12,1465,289.83Z"/><path class="cls-24" d="M1465,289.72c-16.08,23-24.76,50.13-82,131-44.48,62.89-130.12,172.27-280.06,267.42C1029,735,921.1,801.92,763.48,824.4,623.82,844.31,508.77,820.28,442,800.85q14.78-52.12,29.54-104.25L128.05,779.17l244.48,261.27,26.22-93c19.21,3.53,46.39,7.86,79.13,10.8,36.65,3.29,191,14.79,365.81-43.58,216.77-72.37,347.42-212.88,421.17-294.11C1414,456.29,1466.85,287,1465,289.72Z"/><path class="cls-24" d="M1465,289.61c-16.08,23-24.76,50.12-82,131-44.48,62.9-130.12,172.28-280.06,267.42C1029,734.93,921.1,801.81,763.48,824.28,623.82,844.2,508.77,820.17,442,800.73q14.78-52.11,29.54-104.24L128.05,779.06l244.48,261.26,26.22-92.94c19.21,3.53,46.39,7.86,79.13,10.8,36.65,3.29,191,14.79,365.81-43.58,216.77-72.37,347.42-212.88,421.17-294.11C1414,456.18,1466.85,286.9,1465,289.61Z"/><path class="cls-24" d="M1465,289.49c-16.08,23-24.76,50.13-82,131-44.48,62.89-130.12,172.27-280.06,267.42C1029,734.81,921.1,801.7,763.48,824.17,623.82,844.09,508.77,820.06,442,800.62q14.78-52.12,29.54-104.24L128.05,779l244.48,261.26,26.22-92.94c19.21,3.53,46.39,7.86,79.13,10.8,36.65,3.29,191,14.79,365.81-43.58,216.77-72.38,347.42-212.88,421.17-294.11C1414,456.07,1466.85,286.79,1465,289.49Z"/><path class="cls-24" d="M1465,289.38c-16.08,23-24.76,50.13-82,131-44.48,62.89-130.12,172.27-280.06,267.42C1029,734.7,921.1,801.59,763.48,824.06,623.82,844,508.77,819.94,442,800.51q14.78-52.12,29.54-104.24L128.05,778.83,372.53,1040.1l26.22-92.94C418,950.69,445.14,955,477.88,958c36.65,3.29,191,14.79,365.81-43.59,216.77-72.37,347.42-212.88,421.17-294.1C1414,456,1466.85,286.68,1465,289.38Z"/><path class="cls-24" d="M1465,289.27c-16.08,23-24.76,50.13-82,131-44.48,62.89-130.12,172.27-280.06,267.42C1029,734.59,921.1,801.48,763.48,824,623.82,843.86,508.77,819.83,442,800.4q14.78-52.12,29.54-104.25L128.05,778.72,372.53,1040l26.22-92.94c19.21,3.53,46.39,7.85,79.13,10.79,36.65,3.29,191,14.79,365.81-43.58,216.77-72.37,347.42-212.88,421.17-294.1C1414,455.84,1466.85,286.56,1465,289.27Z"/><path class="cls-24" d="M1465,289.16c-16.08,23-24.76,50.13-82,131-44.48,62.89-130.12,172.27-280.06,267.42C1029,734.48,921.1,801.36,763.48,823.84,623.82,843.75,508.77,819.72,442,800.29Q456.74,748.17,471.5,696L128.05,778.61l244.48,261.27,26.22-93c19.21,3.54,46.39,7.86,79.13,10.8,36.65,3.29,191,14.79,365.81-43.58,216.77-72.37,347.42-212.88,421.17-294.1C1414,455.73,1466.85,286.45,1465,289.16Z"/><path class="cls-25" d="M1465,289.05c-16.08,23-24.76,50.13-82,131-44.48,62.89-130.12,172.27-280.06,267.42C1029,734.37,921.1,801.25,763.48,823.73,623.82,843.64,508.77,819.61,442,800.18q14.78-52.12,29.54-104.25L128.05,778.5l244.48,261.27,26.22-92.95c19.21,3.53,46.39,7.86,79.13,10.8,36.65,3.29,191,14.79,365.81-43.58,216.77-72.37,347.42-212.88,421.17-294.1C1414,455.62,1466.85,286.34,1465,289.05Z"/><path class="cls-25" d="M1465,288.94c-16.08,23-24.76,50.12-82,131-44.48,62.89-130.12,172.27-280.06,267.41C1029,734.26,921.1,801.14,763.48,823.62,623.82,843.53,508.77,819.5,442,800.06Q456.74,748,471.5,695.82L128.05,778.39l244.48,261.26,26.22-92.94c19.21,3.53,46.39,7.86,79.13,10.8,36.65,3.29,191,14.79,365.81-43.58,216.77-72.37,347.42-212.88,421.17-294.11C1414,455.51,1466.85,286.23,1465,288.94Z"/><path class="cls-25" d="M1465,288.83c-16.08,23-24.76,50.12-82,131-44.48,62.89-130.12,172.27-280.06,267.42C1029,734.14,921.1,801,763.48,823.5,623.82,843.42,508.77,819.39,442,800q14.78-52.12,29.54-104.24L128.05,778.28l244.48,261.26,26.22-92.94c19.21,3.53,46.39,7.86,79.13,10.8,36.65,3.29,191,14.79,365.81-43.58,216.77-72.37,347.42-212.88,421.17-294.11C1414,455.4,1466.85,286.12,1465,288.83Z"/><path class="cls-25" d="M1465,288.71c-16.08,23-24.76,50.13-82,131-44.48,62.89-130.12,172.27-280.06,267.42C1029,734,921.1,800.92,763.48,823.39,623.82,843.3,508.77,819.28,442,799.84q14.78-52.12,29.54-104.24L128.05,778.17Q250.3,908.79,372.53,1039.43l26.22-92.94c19.21,3.53,46.39,7.86,79.13,10.8,36.65,3.29,191,14.79,365.81-43.58,216.77-72.38,347.42-212.88,421.17-294.11C1414,455.29,1466.85,286,1465,288.71Z"/><path class="cls-26" d="M1465,288.6c-16.08,23-24.76,50.13-82,131-44.48,62.89-130.12,172.27-280.06,267.42C1029,733.92,921.1,800.81,763.48,823.28,623.82,843.19,508.77,819.16,442,799.73q14.78-52.12,29.54-104.25L128.05,778.05l244.48,261.27,26.22-92.94c19.21,3.53,46.39,7.85,79.13,10.79,36.65,3.29,191,14.79,365.81-43.58,216.77-72.37,347.42-212.88,421.17-294.1C1414,455.17,1466.85,285.89,1465,288.6Z"/><path class="cls-26" d="M1465,288.49c-16.08,23-24.76,50.13-82,131-44.48,62.89-130.12,172.27-280.06,267.42C1029,733.81,921.1,800.7,763.48,823.17,623.82,843.08,508.77,819.05,442,799.62q14.78-52.12,29.54-104.25L128.05,777.94l244.48,261.27,26.22-93c19.21,3.54,46.39,7.86,79.13,10.8,36.65,3.29,191,14.79,365.81-43.58,216.77-72.37,347.42-212.88,421.17-294.1C1414,455.06,1466.85,285.78,1465,288.49Z"/><path class="cls-27" d="M1465,288.38c-16.08,23-24.76,50.13-82,131-44.48,62.89-130.12,172.27-280.06,267.42C1029,733.7,921.1,800.58,763.48,823.06,623.82,843,508.77,818.94,442,799.51q14.78-52.12,29.54-104.25L128.05,777.83,372.53,1039.1l26.22-92.95C418,949.68,445.14,954,477.88,957c36.65,3.29,191,14.79,365.81-43.58,216.77-72.37,347.42-212.88,421.17-294.1C1414,455,1466.85,285.67,1465,288.38Z"/><path class="cls-27" d="M1465,288.27c-16.08,23-24.76,50.12-82,131-44.48,62.89-130.12,172.27-280.06,267.42C1029,733.59,921.1,800.47,763.48,823,623.82,842.86,508.77,818.83,442,799.39q14.78-52.11,29.54-104.24L128.05,777.72,372.53,1039,398.75,946c19.21,3.53,46.39,7.86,79.13,10.8,36.65,3.29,191,14.79,365.81-43.58,216.77-72.37,347.42-212.88,421.17-294.11C1414,454.84,1466.85,285.56,1465,288.27Z"/><path class="cls-27" d="M1465,288.16c-16.08,23-24.76,50.12-82,131C1338.51,482,1252.87,591.4,1102.93,686.55,1029,733.47,921.1,800.36,763.48,822.83,623.82,842.75,508.77,818.72,442,799.28Q456.74,747.17,471.5,695L128.05,777.61l244.48,261.26,26.22-92.94c19.21,3.53,46.39,7.86,79.13,10.8,36.65,3.29,191,14.79,365.81-43.58,216.77-72.37,347.42-212.88,421.17-294.11C1414,454.73,1466.85,285.45,1465,288.16Z"/><path class="cls-27" d="M1465,288c-16.08,23-24.76,50.13-82,131-44.48,62.89-130.12,172.27-280.06,267.42C1029,733.36,921.1,800.25,763.48,822.72,623.82,842.63,508.77,818.61,442,799.17Q456.74,747,471.5,694.93L128.05,777.5Q250.3,908.12,372.53,1038.76l26.22-92.94c19.21,3.53,46.39,7.86,79.13,10.8,36.65,3.29,191,14.79,365.81-43.58,216.77-72.38,347.42-212.88,421.17-294.11C1414,454.62,1466.85,285.34,1465,288Z"/><path class="cls-27" d="M1465,287.93c-16.08,23-24.76,50.13-82,131-44.48,62.89-130.12,172.27-280.06,267.42C1029,733.25,921.1,800.14,763.48,822.61,623.82,842.52,508.77,818.49,442,799.06q14.78-52.12,29.54-104.24L128.05,777.38l244.48,261.27,26.22-92.94c19.21,3.53,46.39,7.85,79.13,10.79,36.65,3.3,191,14.79,365.81-43.58,216.77-72.37,347.42-212.88,421.17-294.1C1414,454.5,1466.85,285.23,1465,287.93Z"/><path class="cls-27" d="M1465,287.82c-16.08,23-24.76,50.13-82,131-44.48,62.89-130.12,172.27-280.06,267.42C1029,733.14,921.1,800,763.48,822.5,623.82,842.41,508.77,818.38,442,799q14.78-52.12,29.54-104.25L128.05,777.27l244.48,261.27,26.22-92.94c19.21,3.53,46.39,7.85,79.13,10.79,36.65,3.29,191,14.79,365.81-43.58,216.77-72.37,347.42-212.88,421.17-294.1C1414,454.39,1466.85,285.11,1465,287.82Z"/><path class="cls-28" d="M1465,287.71c-16.08,23-24.76,50.13-82,131-44.48,62.89-130.12,172.27-280.06,267.42C1029,733,921.1,799.91,763.48,822.39,623.82,842.3,508.77,818.27,442,798.84q14.78-52.12,29.54-104.25L128.05,777.16l244.48,261.27,26.22-93c19.21,3.54,46.39,7.86,79.13,10.8,36.65,3.29,191,14.79,365.81-43.58,216.77-72.37,347.42-212.88,421.17-294.1C1414,454.28,1466.85,285,1465,287.71Z"/><path class="cls-28" d="M1465,287.6c-16.08,23-24.76,50.13-82,131-44.48,62.89-130.12,172.27-280.06,267.42C1029,732.92,921.1,799.8,763.48,822.28,623.82,842.19,508.77,818.16,442,798.73q14.78-52.12,29.54-104.25L128.05,777.05l244.48,261.27,26.22-92.95c19.21,3.53,46.39,7.86,79.13,10.8,36.65,3.29,191,14.79,365.81-43.58,216.77-72.37,347.42-212.88,421.17-294.11C1414,454.17,1466.85,284.89,1465,287.6Z"/><path class="cls-28" d="M1465,287.49c-16.08,23-24.76,50.12-82,131-44.48,62.9-130.12,172.28-280.06,267.42C1029,732.81,921.1,799.69,763.48,822.16,623.82,842.08,508.77,818.05,442,798.61q14.78-52.11,29.54-104.24L128.05,776.94,372.53,1038.2l26.22-92.94c19.21,3.53,46.39,7.86,79.13,10.8,36.65,3.29,191,14.79,365.81-43.58,216.77-72.37,347.42-212.88,421.17-294.11C1414,454.06,1466.85,284.78,1465,287.49Z"/><path class="cls-28" d="M1465,287.37c-16.08,23-24.76,50.13-82,131-44.48,62.89-130.12,172.27-280.06,267.42C1029,732.69,921.1,799.58,763.48,822.05,623.82,842,508.77,817.94,442,798.5q14.78-52.12,29.54-104.24L128.05,776.83Q250.3,907.45,372.53,1038.09l26.22-92.94C418,948.68,445.14,953,477.88,956c36.65,3.29,191,14.79,365.81-43.58,216.77-72.38,347.42-212.88,421.17-294.11C1414,454,1466.85,284.67,1465,287.37Z"/><path class="cls-28" d="M1465,287.26c-16.08,23-24.76,50.13-82,131-44.48,62.89-130.12,172.27-280.06,267.42C1029,732.58,921.1,799.47,763.48,821.94,623.82,841.85,508.77,817.82,442,798.39q14.78-52.12,29.54-104.24L128.05,776.71,372.53,1038,398.75,945c19.21,3.53,46.39,7.85,79.13,10.79,36.65,3.3,191,14.8,365.81-43.58,216.77-72.37,347.42-212.88,421.17-294.1C1414,453.83,1466.85,284.56,1465,287.26Z"/><path class="cls-28" d="M1465,287.15c-16.08,23-24.76,50.13-82,131C1338.51,481,1252.87,590.4,1102.93,685.55,1029,732.47,921.1,799.36,763.48,821.83,623.82,841.74,508.77,817.71,442,798.28Q456.74,746.16,471.5,694L128.05,776.6l244.48,261.27,26.22-92.94c19.21,3.53,46.39,7.85,79.13,10.79,36.65,3.29,191,14.79,365.81-43.58,216.77-72.37,347.42-212.88,421.17-294.1C1414,453.72,1466.85,284.44,1465,287.15Z"/><path class="cls-29" d="M1465,287c-16.08,23-24.76,50.13-82,131-44.48,62.89-130.12,172.27-280.06,267.42C1029,732.36,921.1,799.24,763.48,821.72,623.82,841.63,508.77,817.6,442,798.17Q456.74,746,471.5,693.92L128.05,776.49l244.48,261.27,26.22-93c19.21,3.54,46.39,7.86,79.13,10.8,36.65,3.29,191,14.79,365.81-43.58,216.77-72.37,347.42-212.88,421.17-294.1C1414,453.61,1466.85,284.33,1465,287Z"/><path class="cls-29" d="M1465,286.93c-16.08,23-24.76,50.13-82,131-44.48,62.89-130.12,172.27-280.06,267.42C1029,732.25,921.1,799.13,763.48,821.61,623.82,841.52,508.77,817.49,442,798.06q14.78-52.12,29.54-104.25L128.05,776.38l244.48,261.27,26.22-93c19.21,3.53,46.39,7.86,79.13,10.8,36.65,3.29,191,14.79,365.81-43.58,216.77-72.37,347.42-212.88,421.17-294.11C1414,453.5,1466.85,284.22,1465,286.93Z"/><path class="cls-29" d="M1465,286.82c-16.08,23-24.76,50.12-82,131-44.48,62.9-130.12,172.28-280.06,267.42C1029,732.14,921.1,799,763.48,821.5,623.82,841.41,508.77,817.38,442,797.94q14.78-52.11,29.54-104.24L128.05,776.27l244.48,261.26,26.22-92.94c19.21,3.53,46.39,7.86,79.13,10.8,36.65,3.29,191,14.79,365.81-43.58,216.77-72.37,347.42-212.88,421.17-294.11C1414,453.39,1466.85,284.11,1465,286.82Z"/><path class="cls-29" d="M1465,286.7c-16.08,23-24.76,50.13-82,131C1338.51,480.57,1252.87,590,1102.93,685.1,1029,732,921.1,798.91,763.48,821.38,623.82,841.3,508.77,817.27,442,797.83q14.78-52.12,29.54-104.24L128.05,776.16l244.48,261.26,26.22-92.94c19.21,3.53,46.39,7.86,79.13,10.8,36.65,3.29,191,14.79,365.81-43.58,216.77-72.38,347.42-212.88,421.17-294.11C1414,453.28,1466.85,284,1465,286.7Z"/><path class="cls-29" d="M1465,286.59c-16.08,23-24.76,50.13-82,131-44.48,62.89-130.12,172.27-280.06,267.42C1029,731.91,921.1,798.8,763.48,821.27,623.82,841.18,508.77,817.15,442,797.72q14.78-52.12,29.54-104.24L128.05,776.05Q250.3,906.67,372.53,1037.31l26.22-92.94c19.21,3.53,46.39,7.86,79.13,10.8,36.65,3.29,191,14.79,365.81-43.59,216.77-72.37,347.42-212.88,421.17-294.1C1414,453.17,1466.85,283.89,1465,286.59Z"/><path class="cls-30" d="M1465,286.48c-16.08,23-24.76,50.13-82,131-44.48,62.89-130.12,172.27-280.06,267.42C1029,731.8,921.1,798.69,763.48,821.16,623.82,841.07,508.77,817,442,797.61q14.78-52.12,29.54-104.25L128.05,775.93,372.53,1037.2l26.22-92.94c19.21,3.53,46.39,7.85,79.13,10.79,36.65,3.29,191,14.79,365.81-43.58,216.77-72.37,347.42-212.88,421.17-294.1C1414,453.05,1466.85,283.77,1465,286.48Z"/><path class="cls-30" d="M1465,286.37c-16.08,23-24.76,50.13-82,131-44.48,62.89-130.12,172.27-280.06,267.42C1029,731.69,921.1,798.58,763.48,821.05,623.82,841,508.77,816.93,442,797.5q14.78-52.12,29.54-104.25L128.05,775.82l244.48,261.27,26.22-92.95c19.21,3.54,46.39,7.86,79.13,10.8,36.65,3.29,191,14.79,365.81-43.58,216.77-72.37,347.42-212.88,421.17-294.1C1414,452.94,1466.85,283.66,1465,286.37Z"/><path class="cls-30" d="M1465,286.26c-16.08,23-24.76,50.13-82,131-44.48,62.89-130.12,172.27-280.06,267.42C1029,731.58,921.1,798.46,763.48,820.94,623.82,840.85,508.77,816.82,442,797.39q14.78-52.12,29.54-104.25L128.05,775.71,372.53,1037l26.22-93c19.21,3.53,46.39,7.86,79.13,10.8,36.65,3.29,191,14.79,365.81-43.58,216.77-72.37,347.42-212.88,421.17-294.1C1414,452.83,1466.85,283.55,1465,286.26Z"/><path class="cls-30" d="M1465,286.15c-16.08,23-24.76,50.12-82,131C1338.51,480,1252.87,589.4,1102.93,684.54,1029,731.47,921.1,798.35,763.48,820.83,623.82,840.74,508.77,816.71,442,797.27Q456.74,745.16,471.5,693L128.05,775.6l244.48,261.26,26.22-92.94c19.21,3.53,46.39,7.86,79.13,10.8,36.65,3.29,191,14.79,365.81-43.58,216.77-72.37,347.42-212.88,421.17-294.11C1414,452.72,1466.85,283.44,1465,286.15Z"/><path class="cls-30" d="M1465,286c-16.08,23-24.76,50.12-82,131-44.48,62.89-130.12,172.27-280.06,267.42C1029,731.35,921.1,798.24,763.48,820.71,623.82,840.63,508.77,816.6,442,797.16Q456.74,745,471.5,692.92L128.05,775.49l244.48,261.26,26.22-92.94c19.21,3.53,46.39,7.86,79.13,10.8,36.65,3.29,191,14.79,365.81-43.58,216.77-72.37,347.42-212.88,421.17-294.11C1414,452.61,1466.85,283.33,1465,286Z"/><path class="cls-30" d="M1465,285.92c-16.08,23-24.76,50.13-82,131-44.48,62.89-130.12,172.27-280.06,267.42C1029,731.24,921.1,798.13,763.48,820.6,623.82,840.51,508.77,816.49,442,797.05q14.78-52.12,29.54-104.24L128.05,775.38Q250.3,906,372.53,1036.64l26.22-92.94c19.21,3.53,46.39,7.86,79.13,10.8,36.65,3.29,191,14.79,365.81-43.58,216.77-72.38,347.42-212.88,421.17-294.11C1414,452.5,1466.85,283.22,1465,285.92Z"/><path class="cls-31" d="M1465,285.81c-16.08,23-24.76,50.13-82,131-44.48,62.89-130.12,172.27-280.06,267.42C1029,731.13,921.1,798,763.48,820.49,623.82,840.4,508.77,816.37,442,796.94q14.78-52.12,29.54-104.24L128.05,775.26l244.48,261.27,26.22-92.94c19.21,3.53,46.39,7.85,79.13,10.79,36.65,3.29,191,14.79,365.81-43.58,216.77-72.37,347.42-212.88,421.17-294.1C1414,452.38,1466.85,283.1,1465,285.81Z"/><path class="cls-31" d="M1465,285.7c-16.08,23-24.76,50.13-82,131C1338.51,479.57,1252.87,589,1102.93,684.1,1029,731,921.1,797.91,763.48,820.38,623.82,840.29,508.77,816.26,442,796.83q14.78-52.12,29.54-104.25L128.05,775.15l244.48,261.27,26.22-93c19.21,3.54,46.39,7.86,79.13,10.8,36.65,3.29,191,14.79,365.81-43.58,216.77-72.37,347.42-212.88,421.17-294.1C1414,452.27,1466.85,283,1465,285.7Z"/><path class="cls-31" d="M1465,285.59c-16.08,23-24.76,50.13-82,131-44.48,62.89-130.12,172.27-280.06,267.42C1029,730.91,921.1,797.79,763.48,820.27,623.82,840.18,508.77,816.15,442,796.72q14.78-52.12,29.54-104.25L128.05,775l244.48,261.27,26.22-92.95c19.21,3.53,46.39,7.86,79.13,10.8,36.65,3.29,191,14.79,365.81-43.58,216.77-72.37,347.42-212.88,421.17-294.1C1414,452.16,1466.85,282.88,1465,285.59Z"/><path class="cls-31" d="M1465,285.48c-16.08,23-24.76,50.12-82,131-44.48,62.89-130.12,172.27-280.06,267.42C1029,730.8,921.1,797.68,763.48,820.16,623.82,840.07,508.77,816,442,796.6q14.78-52.11,29.54-104.24L128.05,774.93,372.53,1036.2l26.22-93c19.21,3.53,46.39,7.86,79.13,10.8,36.65,3.29,191,14.79,365.81-43.58,216.77-72.37,347.42-212.88,421.17-294.11C1414,452.05,1466.85,282.77,1465,285.48Z"/><path class="cls-31" d="M1465,285.37c-16.08,23-24.76,50.12-82,131-44.48,62.89-130.12,172.27-280.06,267.42C1029,730.68,921.1,797.57,763.48,820,623.82,840,508.77,815.93,442,796.49q14.78-52.11,29.54-104.24L128.05,774.82l244.48,261.26,26.22-92.94c19.21,3.53,46.39,7.86,79.13,10.8,36.65,3.29,191,14.79,365.81-43.58,216.77-72.37,347.42-212.88,421.17-294.11C1414,451.94,1466.85,282.66,1465,285.37Z"/><path class="cls-32" d="M1465,285.25c-16.08,23-24.76,50.13-82,131-44.48,62.89-130.12,172.27-280.06,267.42C1029,730.57,921.1,797.46,763.48,819.93,623.82,839.84,508.77,815.82,442,796.38q14.78-52.12,29.54-104.24L128.05,774.71Q250.3,905.33,372.53,1036L398.75,943c19.21,3.53,46.39,7.86,79.13,10.8,36.65,3.29,191,14.79,365.81-43.58,216.77-72.38,347.42-212.88,421.17-294.11C1414,451.83,1466.85,282.55,1465,285.25Z"/><path class="cls-33" d="M1465,285.14c-16.08,23-24.76,50.13-82,131-44.48,62.89-130.12,172.27-280.06,267.42C1029,730.46,921.1,797.35,763.48,819.82,623.82,839.73,508.77,815.7,442,796.27Q456.74,744.15,471.5,692L128.05,774.59l244.48,261.27,26.22-92.94c19.21,3.53,46.39,7.85,79.13,10.79,36.65,3.3,191,14.79,365.81-43.58,216.77-72.37,347.42-212.88,421.17-294.1C1414,451.71,1466.85,282.44,1465,285.14Z"/><path class="cls-33" d="M1465,285c-16.08,23-24.76,50.13-82,131-44.48,62.89-130.12,172.27-280.06,267.42C1029,730.35,921.1,797.24,763.48,819.71,623.82,839.62,508.77,815.59,442,796.16Q456.74,744,471.5,691.91L128.05,774.48l244.48,261.27,26.22-92.94c19.21,3.53,46.39,7.85,79.13,10.79,36.65,3.29,191,14.79,365.81-43.58,216.77-72.37,347.42-212.88,421.17-294.1C1414,451.6,1466.85,282.32,1465,285Z"/><path class="cls-34" d="M1465,284.92c-16.08,23-24.76,50.13-82,131-44.48,62.89-130.12,172.27-280.06,267.42C1029,730.24,921.1,797.12,763.48,819.6,623.82,839.51,508.77,815.48,442,796.05q14.78-52.12,29.54-104.25L128.05,774.37l244.48,261.27,26.22-93c19.21,3.54,46.39,7.86,79.13,10.8,36.65,3.29,191,14.79,365.81-43.58,216.77-72.37,347.42-212.88,421.17-294.1C1414,451.49,1466.85,282.21,1465,284.92Z"/><path class="cls-34" d="M1465,284.81c-16.08,23-24.76,50.13-82,131-44.48,62.89-130.12,172.27-280.06,267.42C1029,730.13,921.1,797,763.48,819.49,623.82,839.4,508.77,815.37,442,795.94q14.78-52.12,29.54-104.25L128.05,774.26l244.48,261.27,26.22-92.95c19.21,3.53,46.39,7.86,79.13,10.8,36.65,3.29,191,14.79,365.81-43.58,216.77-72.37,347.42-212.88,421.17-294.11C1414,451.38,1466.85,282.1,1465,284.81Z"/><path class="cls-34" d="M1465,284.7c-16.08,23-24.76,50.12-82,131-44.48,62.9-130.12,172.28-280.06,267.42C1029,730,921.1,796.9,763.48,819.37,623.82,839.29,508.77,815.26,442,795.82q14.78-52.11,29.54-104.24L128.05,774.15l244.48,261.26,26.22-92.94c19.21,3.53,46.39,7.86,79.13,10.8,36.65,3.29,191,14.79,365.81-43.58,216.77-72.37,347.42-212.88,421.17-294.11C1414,451.27,1466.85,282,1465,284.7Z"/><path class="cls-34" d="M1465,284.58c-16.08,23-24.76,50.13-82,131-44.48,62.89-130.12,172.27-280.06,267.42C1029,729.9,921.1,796.79,763.48,819.26,623.82,839.18,508.77,815.15,442,795.71q14.78-52.12,29.54-104.24L128.05,774Q250.3,904.66,372.53,1035.3l26.22-92.94c19.21,3.53,46.39,7.86,79.13,10.8,36.65,3.29,191,14.79,365.81-43.58,216.77-72.38,347.42-212.88,421.17-294.11C1414,451.16,1466.85,281.88,1465,284.58Z"/><path class="cls-35" d="M1465,284.47c-16.08,23-24.76,50.13-82,131-44.48,62.89-130.12,172.27-280.06,267.42C1029,729.79,921.1,796.68,763.48,819.15,623.82,839.06,508.77,815,442,795.6q14.78-52.12,29.54-104.24L128.05,773.92l244.48,261.27,26.22-92.94c19.21,3.53,46.39,7.85,79.13,10.79,36.65,3.3,191,14.8,365.81-43.58,216.77-72.37,347.42-212.88,421.17-294.1C1414,451,1466.85,281.77,1465,284.47Z"/><path class="cls-35" d="M1465,284.36c-16.08,23-24.76,50.13-82,131-44.48,62.89-130.12,172.27-280.06,267.42C1029,729.68,921.1,796.57,763.48,819,623.82,839,508.77,814.92,442,795.49q14.78-52.12,29.54-104.25L128.05,773.81l244.48,261.27,26.22-92.94c19.21,3.53,46.39,7.85,79.13,10.79,36.65,3.29,191,14.79,365.81-43.58,216.77-72.37,347.42-212.88,421.17-294.1C1414,450.93,1466.85,281.65,1465,284.36Z"/><path class="cls-35" d="M1465,284.25c-16.08,23-24.76,50.13-82,131-44.48,62.89-130.12,172.27-280.06,267.42C1029,729.57,921.1,796.45,763.48,818.93,623.82,838.84,508.77,814.81,442,795.38q14.78-52.12,29.54-104.25L128.05,773.7,372.53,1035l26.22-93c19.21,3.54,46.39,7.86,79.13,10.8,36.65,3.29,191,14.79,365.81-43.58,216.77-72.37,347.42-212.88,421.17-294.1C1414,450.82,1466.85,281.54,1465,284.25Z"/><path class="cls-35" d="M1465,284.14c-16.08,23-24.76,50.13-82,131-44.48,62.89-130.12,172.27-280.06,267.42C1029,729.46,921.1,796.34,763.48,818.82,623.82,838.73,508.77,814.7,442,795.27Q456.74,743.15,471.5,691L128.05,773.59l244.48,261.27,26.22-92.95c19.21,3.53,46.39,7.86,79.13,10.8,36.65,3.29,191,14.79,365.81-43.58,216.77-72.37,347.42-212.88,421.17-294.11C1414,450.71,1466.85,281.43,1465,284.14Z"/><path class="cls-35" d="M1465,284c-16.08,23-24.76,50.12-82,131-44.48,62.89-130.12,172.27-280.06,267.41C1029,729.35,921.1,796.23,763.48,818.71,623.82,838.62,508.77,814.59,442,795.15Q456.74,743,471.5,690.91L128.05,773.48l244.48,261.26,26.22-92.94c19.21,3.53,46.39,7.86,79.13,10.8,36.65,3.29,191,14.79,365.81-43.58,216.77-72.37,347.42-212.88,421.17-294.11C1414,450.6,1466.85,281.32,1465,284Z"/><path class="cls-35" d="M1465,283.91c-16.08,23-24.76,50.13-82,131-44.48,62.89-130.12,172.27-280.06,267.42C1029,729.23,921.1,796.12,763.48,818.59,623.82,838.51,508.77,814.48,442,795q14.78-52.12,29.54-104.24L128.05,773.37l244.48,261.26,26.22-92.94c19.21,3.53,46.39,7.86,79.13,10.8,36.65,3.29,191,14.79,365.81-43.58C1060.46,836.53,1191.11,696,1264.86,614.8,1414,450.49,1466.85,281.21,1465,283.91Z"/><path class="cls-36" d="M1465,283.8c-16.08,23-24.76,50.13-82,131-44.48,62.89-130.12,172.27-280.06,267.42C1029,729.12,921.1,796,763.48,818.48,623.82,838.39,508.77,814.36,442,794.93q14.78-52.12,29.54-104.24L128.05,773.26Q250.3,903.88,372.53,1034.52l26.22-92.94c19.21,3.53,46.39,7.86,79.13,10.8,36.65,3.29,191,14.79,365.81-43.59,216.77-72.37,347.42-212.88,421.17-294.1C1414,450.38,1466.85,281.1,1465,283.8Z"/><path class="cls-36" d="M1465,283.69c-16.08,23-24.76,50.13-82,131-44.48,62.89-130.12,172.27-280.06,267.42C1029,729,921.1,795.9,763.48,818.37,623.82,838.28,508.77,814.25,442,794.82q14.78-52.12,29.54-104.25L128.05,773.14l244.48,261.27,26.22-92.94c19.21,3.53,46.39,7.85,79.13,10.79,36.65,3.29,191,14.79,365.81-43.58,216.77-72.37,347.42-212.88,421.17-294.1C1414,450.26,1466.85,281,1465,283.69Z"/><path class="cls-36" d="M1465,283.58c-16.08,23-24.76,50.13-82,131-44.48,62.89-130.12,172.27-280.06,267.42C1029,728.9,921.1,795.79,763.48,818.26,623.82,838.17,508.77,814.14,442,794.71q14.78-52.12,29.54-104.25L128.05,773,372.53,1034.3l26.22-92.95c19.21,3.54,46.39,7.86,79.13,10.8,36.65,3.29,191,14.79,365.81-43.58,216.77-72.37,347.42-212.88,421.17-294.1C1414,450.15,1466.85,280.87,1465,283.58Z"/><text class="cls-37" transform="translate(718.78 1180.02)">CLICK<tspan x="96.13" y="168">AND </tspan><tspan x="39.37" y="336">DR</tspan><tspan class="cls-38" x="273.65" y="336">A</tspan><tspan x="385.68" y="336">G</tspan></text></g></svg>